<mxfile host="65bd71144e">
    <diagram id="3UztaAlBO7qPt7HgQW2y" name="Page-1">
        <mxGraphModel dx="2710" dy="1030" grid="1" gridSize="10" guides="1" tooltips="1" connect="1" arrows="1" fold="1" page="1" pageScale="1" pageWidth="850" pageHeight="1100" math="0" shadow="0">
            <root>
                <mxCell id="0"/>
                <mxCell id="1" parent="0"/>
                <mxCell id="_fm6HAd3_Kjj56SGNAd9-14" value="" style="verticalLabelPosition=bottom;verticalAlign=top;html=1;shadow=0;dashed=0;strokeWidth=1;shape=mxgraph.android.phone2;strokeColor=#d6b656;fillColor=#000000;" vertex="1" parent="1">
                    <mxGeometry x="160" y="400" width="80" height="130" as="geometry"/>
                </mxCell>
                <mxCell id="_fm6HAd3_Kjj56SGNAd9-16" value="&lt;b&gt;&lt;font&gt;Student&lt;/font&gt;&lt;/b&gt;" style="text;html=1;align=center;verticalAlign=middle;whiteSpace=wrap;rounded=0;strokeWidth=0;fontSize=24;fontFamily=Lucida Console;" vertex="1" parent="1">
                    <mxGeometry x="20" y="510" width="60" height="30" as="geometry"/>
                </mxCell>
                <mxCell id="_fm6HAd3_Kjj56SGNAd9-20" value="" style="points=[];aspect=fixed;html=1;align=center;shadow=0;dashed=0;fillColor=#FF6A00;strokeColor=none;shape=mxgraph.alibaba_cloud.user;" vertex="1" parent="1">
                    <mxGeometry x="30" y="420" width="60" height="60" as="geometry"/>
                </mxCell>
                <mxCell id="_fm6HAd3_Kjj56SGNAd9-23" value="" style="points=[];aspect=fixed;html=1;align=center;shadow=0;dashed=0;shape=mxgraph.alibaba_cloud.user;strokeColor=#005700;fillColor=#008a00;fontColor=#ffffff;" vertex="1" parent="1">
                    <mxGeometry x="20" y="770" width="60" height="60" as="geometry"/>
                </mxCell>
                <mxCell id="_fm6HAd3_Kjj56SGNAd9-24" value="&lt;b&gt;&lt;font&gt;Teacher&lt;/font&gt;&lt;/b&gt;" style="text;html=1;align=center;verticalAlign=middle;whiteSpace=wrap;rounded=0;strokeWidth=0;fontSize=24;fontFamily=Lucida Console;" vertex="1" parent="1">
                    <mxGeometry x="30" y="850" width="60" height="30" as="geometry"/>
                </mxCell>
                <mxCell id="_fm6HAd3_Kjj56SGNAd9-26" value="" style="verticalLabelPosition=bottom;html=1;verticalAlign=top;align=center;strokeColor=none;fillColor=#00BEF2;shape=mxgraph.azure.laptop;pointerEvents=1;" vertex="1" parent="1">
                    <mxGeometry x="140" y="760" width="140" height="90" as="geometry"/>
                </mxCell>
                <mxCell id="_fm6HAd3_Kjj56SGNAd9-27" value="" style="shape=image;verticalLabelPosition=bottom;labelBackgroundColor=default;verticalAlign=top;aspect=fixed;imageAspect=0;image=data:image/png,iVBORw0KGgoAAAANSUhEUgAAAgAAAAIACAMAAADDpiTIAAAArlBMVEUAAAAAAAAAAAAAAAAAAAAAAAAAAAAAAAAAAAAAAAAAAAAAAAAAAAAAAAAAAAAAAAAAAAAAAAAAAAAAAAAAAAAAAAAAAAAAAAAAAAAAAAAAAAAAAAAAAAAAAAAAAAAAAAAAAAAAAAAAAAAAAAAAAAAAAAAAAAAAAAAAAAAAAAAAAAAAAAAAAAAAAAAAAAAAAAAAAAAAAAAAAAAAAAAAAAAAAAAAAAAAAAAAAAAAAABeyFOlAAAAOXRSTlMABAgLDxQYHSEkKi82O0BFSE5SV1tfZGpvc3h9gIOHjJCTmJugpaqwtLm/xcvO0tfa3eHk6Ozx9fl0zHYlAAAe/ElEQVR42u3dB3qjyBaG4YNQzsFKlm1ZVs4Z+Pe/sfvcmemZDpgqSoQCnXcBM93tzxJUJMYYY4wxxhhjjDHGGGOMMcYYY4wxxhhjjDHGGGOMMcYYY4wxxhhjjDHGGGOMMcYYY4wxxhhjjDHGGGMs3czm8G3QqpjEnlF2bOFv1+1s9FLLEXsmlTN+Y+0XH/1G0SD2BEp3fMPedLmB1DP28HCsEEu3F3iy68RSbQNv9wKxFDNsCMyJpVgJIg5/BKRZE0I9YklUfNteb/uvGnnqQ2hCLHkyYwd/WxfIwxhCM2KJU9rjX7cKfW8JoU9iSdO28JNrnr51gNCAWLIYn/jVxqDv2BBqEUuUwha/e6dv5CFWJpYkzTv+1CR3NYhliIUlW6w2u4PX98/pfLFcrlbr5WI++5q8D3vtRiVvkH/Gu68B3S6ErsSCZpSa/Y/55uzAk3PdrSbDdiVL0vIbuNu61/QOoQ2x4BiV7nh1cuDPffs1qOdIrH7Dd8bkZg6hKbFAZKqD+cGBugaJjByfD/PGDkKvxB6W70x2Dh6UJW+5NbxYRfpJqfM2390goUPsIbn25IgAnMlb9Qpv+wz9JVN/W1uQViWmrjraOgjGijw1bIh8EVG+v7LhC68RVpVpzW4Izid5KVgQ6/e38OtOTIXZnlsI1JC8LBCSHTHfjObcRtBeyEPBQUiWnplX6hUeKPxdZXxFCJrkoYfQrOv0jcbaAWAva8T+ZfZ2CEedPIwRok2VXGQX+GHKnwL/qEwshKVGHr4QqnnRe0PZmncQ/V9rgxDVycMHwmWPMvSLvs2rhn5l9k8I071CHjoI26lG/zHn+E2bnlv27Y4wnfomecnaCN1nhv5RPuJ3VomeWO7dQpguPYMExgjfoUJ/6brVtn/eB8Hch4UwOe8mCZknhM/uEVFmytPGPzNHFkK1L5OMio0IzDKlPb7xQk/I6F8RrrFBcnqIwt7Cd+wnXD3aOiJcVpukzRGz47MdMlVeI2S3CskzjwgZ7yT/WXbsIGSXkr8gbYSKNxL/7OWGsF2K5E8XMbOf5kih4hqhu5XJrylidsrSMzCGNkLn1Mi3zB4xW9ATKO+0/T4tWQgV7yX+ZyJM2yfqDmLmpP0xoLBGFC5ZUtKELF5EqKR9RyQayue+xi7NR0tmJgiHc79dzqfT+XK92/8+SyXxIRDAmFKrtEeQrrvF52u3WS3lDPqJkS1WsqTkCxpYU1p1LATD3k1fW+UMBa0NHWwpnYwPBMDejjtlg0KRv0OAPwHUZdd41H3RrxoUngWE+BlAVfmEhzjrQYV+kdIvACCV+0SaFh5wm7ZMCpt5gX/2YTUdv799TBbbGz8CfK/vQNl1UjcoAh/w6TJ9KdNPco3RxuEJwWC3XVizOkWjaMOPy0eFXGRf1g4e4aTwQJHMHIrWLyZFZQ4fti2DvlP4uEPZLYXDgNkNlNzHJYpOBfK2dfKUHVlQs8lT6uR2UHHoZigsZne22S7Gv9zst4CsS4eE8jOoeE/hHtH8AQrWDQpP/44fnPN6MmxVTCpD1leWZDQu8OvepPQpnODfokLhMRb40/UCOfcWScou4M82jXcLFc8R//jFZnjAoUjyhvBjnMKPfyqc4deqQqFq4QGbLPnRtiHrnspLBfIn+LStU8h2ULfKkD8NG3J2RUqh3BH+XDsUthLUrTPkV8OBjEkqt4bnDgq7uMP2AmU7M7Q1pqk8HMLcwpd1iSLwBlXXPKkYQcIbpY+xgh+3F/pBz3cAp0ZqVhA7UvpM4ccsR9HYQtGIFOVuT3mv1Ag+3FoUlRvU7AxS1cYTXirxAh+WeYqKGcd2neXz3StUsyHN7lN0KlAzpQcUHYg46TobpHCDtGOFItSGEjtPj5hAqEEpktlB2jza9IdQ8kkPyTsQeacUmUGWM6BofUGFU6THTJ9qL8AAsu4NitgaKpb0oMozXSxTdRTmVqNyhopWBFNQqVkMkLtA0sqkqBkOFFgGPWr4PHfMLyFpalDkSlAxj+J/PKR0GACAtvMfDah4occdIfBFqVBxIMXpURz6UFGgx309x2tA5gApzgvFYgwFVwpA9zkmBMeQ4rQpHksoWEUyBm33m6XELwutQYrTopjsoeCDApCBBOe8/nptVxI7L2CeNP/50wkK+hSEC+TdttNOElcJjgHN79PfQUErlv/1LXn3h0gOAfYpPtP4DuxY4XdpezE0DoDua1+aUFAJ6fyhtM0QvgYxsarjU2CZgjCHf1VKkIINCUuDYlV14gpgAf9WlCBLSNibFLOOE9Pv4Qr+OQm6PaIBCdcCxa52gk8NCsI23cdGGweI2VXSgPGyvMKPbvjjAMm/SnKQrCuxzEprOFmfHMh4i24lQmKvFM/e8bOk3I1rFBv9j10kl/mVgTS/BnxAbKfp4GYnknm6DlTkKBkKNoQsXY9AqEEkG9dEtEUJMdV7BsBbIZLJgH2abw8qOUl8APiXDYEJPSyX6jsE5xA6azzHfYDAhR7Wg4oPSoSyk+wj8OcR/OnXab5Keq79FJC31/C/vwppvj+u5CT6C0BmFNvO0mPe4SYlu4WmSd/7nA19EYN5hwqHkqDgQGRGettD5GYGvjEsNUdHfUDkrvt41gRCo4cHytO6HMC0tF4EKKUFIbsQ7ChgElZPBTUNeNB+u4PpQGgZ+HY5sQElwCnhT4B/WYc5lG3s4S4VO8abqfgi60PMKgT7BZCS0yPXEHCS8LfIO+FNZ7ehTNP5858VkzwJJOg4mIUhVRuqLqS/DwjYiRjMyu/CutS5dIOyJWnPuEFgQgnQuIU1O1e6QF2XtNeCgJ2EexBHDgRUe65coe6SgEeAZQo+AHJr+LAwI7sxPQGXCOYceHP0fwKoXeHLvkSyXh24034Ttax+0meBiIYOfLJ6JKWwhqSNWW4NJ6uTg/9cEvD7T7RN+khGdgkB1cuNjL7le+uZUaz3Phb7u3Nb9RLw/U9UTPrJZ9UzlDifOfLWOkDalpLqNeGzAH0Hquxxgb5ltHfpW/elso7iRFr7wiOcVdskN6W3S/om/V2Vkj2b+YZH2ct+mX6RbX4c8KtUzJWofQPYWp9uUHEQBGs7e+t3Wq12dzhentK66MPdNtHvgHNo4ar1b4mnfJL3glDGRqDSvObjG71EPwJWoIU5JdcC3kakswbE+AvAi2HBm67HAfytBh3USUm3SPGrJ3t8Kw8NvJGSvHUtU+zeEz0IQLRH7NbqX773CsVtC2+6rwTpIW6n7AOrcO5VilfWSfQ3AJGxQ8yWpCR/AwBY8RZQ/kj8JWglCzEbKIW7xl9i/BYo9xc3iJRIe23EzKk9tM3kVqLo5TqzKwAg0aNA//hEzC65hxZhXfIUrfLr1oGcMSWAsUXMVo+ddb7PUnSq4xN+SPqRID8U7ojZ62Nn3a8NikZlfIEfdiKWtBE1ETOn/tgSphlFoPB6xG+SvhjwXx+I2S1PsoxxHDcwGZ21g5/pfzGUH8YG37ojChuD5OTXcOE0KUzFj1u6Tzmn/A3fWJg9BxF4JynNG1xZJQpNYwU1lvaHwvyn7sCN0yei6gURaJJYbobvHLMUikzvgB9S+wjwfyO4OFfp/3IrhO9qkkBmeI/6RGlzeIW6N0qSNf6wzNE/+jbiHhI2+9eoTxTOju5I+b7Wn+Su+JXzSv8pbRC2HXl5tSBgVyhQ5usdj0nYQqeag59da/SL3h3hcowHT685mhQco3+Dh9RMBHy7y3mdo9/kJg5ClRcEEOU1060Tfpbqey7chticEbkoLxCmnCCA6L50yxvISPxaAJef8N8JrKvkrrpEaO7kZQMJ1xwFwBw7+FbqZoJ+k2sNBu18LPMGC/Kyj2yDQeuKP6T6sjt/GjEtDr9GtMUov8CvUn2+oYI+fNsPr4+vDWw5kHEx6SGdO36V6vMNIzjy19m+lojqDkSOOfLWtMO/YSw7w2+eZhxQ2hLyDpN2VvIUlW2eRJpO2AcN1C684VXoABn37XRYz9J/VvA0Nkis7UDChjyonWeX5quufLMg9FrO0u9yF3zPapGUXpi/edkVAnWnVMpDrEIuqg6+sy8Geu3c0SAF5RNcPcdcsLwaxEx/l+pMMiRtFtbhoi0L30vzfbd+vUDo6uskBetFYQl74JfbDREgez97beq+KVTVm/qJj9kz/nQoky/5SwhrMY0JAnJevnXKCVoI5t8c6vdjVmz8bmaSTxUbQneT/MgsEIDjbFBL2AIAFVsIjaRHEe0e+dcP+iPA3OBB1npUf4Kf/V9uEHqR/fw4VUjFItiPgOwWj7BWwwo9D/OxxfCZDf6zyJKS7DnIF4HsDur2H/VUf+H/qfjgLKg5xT/sfpivoqfwf/7OZqD3AWBxjQNZ5Kk6uwE4jUO+hLhNUswt1Gz66ZztF7IgsieRXDFLD8kcIbKVPWdExfE1peP8EhZaLIWsQ6ii9rcRs2daH/4b/z/9O0VgBpGvcK4zPg+f5X3vOwstpsFzdwhYZgiLm7btJ3vod5E9wNM9Q1HoQ6RHAg0H/mySe6tNhDdMDigSxgkCO/JWuMGXLf/4f+hs4SLi43paECmTl8wOfhyStdEzbLl6732xt/CHTZaisnvsaXQGH249/u53k6u+jGabK36wXg2KTBMCZ/LQhTxn8uxP/gJ/Xfm6XE1eTIrSDgK1YA7IPSTnpJ/n0obAJIgjsp0Rf/pryjgr7816h6wj//rrawCB6sOXJX4l5KjP52RaagtzjT3kWB1iOvuCtyO5eoWc8zMt9UmkClSubCs5kLJ50hn/JNmprAxbQcqcn/71N1DYot9M/W3WTyTn+D6s1zg98+b+1Fn7HgwcpOuc92fX9fuDNG/8+58mOcfnHu0Rf/+ny8bfQ0DOSvll9k9n4G80+ANiWx7+TZCSrzPosxaErjz+kyhneJr7HQR2ePovWb58TAdkrhDqEUuUto9LG3pPe7xniuV8HNm95weAFDpKH9pfTdstP+z/ptInFs0gMiOWOF3ZDUJZGwI3/gJIoAo82fRDj98AUsmwJVcFbSGwI5ZEW7nnuiJEePdnMn3JLQsbPenpzunXl5vb3afnrnf2i7rU2F6RxwDTKi81GzCAwFMf/ZRsFrxYchdPbogl1V5iOsh04K1NLKkW8FSWOVHmyttAkmssMR/4CW/v9ITytZfX8XSx3mw269Vi8tZvJvOyiwE8dSXmDFGicFSnYl+T8cf7sNuq5elb/amiPLky6qP1DX+yd5OWSX8qTx9UpfB0xBPCOXjbUkhe4Ie1m3YL5GYJRWX3LO/4nrNsGYFfGf1C4amJP91b8NaPLACxbS8TbgCNLUQu/UyCAiiJTw1+h7e8RgEA126IAZTWkHFuJieALDwtxKMAW9IqAGCVCyuAvi1/PE5SAiBHOMljwdOrbgHgXAolAGMOedtsUgK4i369S/BW1S4AXAshBJBZw4+dmZAATvByED4D3km/AHAwgw9gAX+WCQlgDy9n4VqAhY4B4CvwAF7h1yAZAWzh5Sosf6hlAKgFHEDFgV92IREBbODFEk4X1fQMYBNwAFv4t0hEACt4sUUvAU5GzwBQDTSAJlSUkhDAUhBADp4OpGkAk0AD2MDFeVTPZ4xctbdy4GqShgCq8DTXNYBrkAEU4eLDoB9KK7i5G4kPwKEOPI2iDsBp/avdG80O+E4pwACG+NNYYlq9mYIABvDUiTwA+lXpS/gnW8LFPCtmeDwo3TMSK2s+ExCA6CHwA56qMQUg/qYYeQcwIx+u4vGPvIU/7RMQwBpeLJrBUy7+AOgTbr6CCyAjc6XK57fvSIWem437dLabUnzjADfhJ4QGAeQduJgHF0BeZhK04vMW5okmp+zt4OUiCOQcVwDi4exFcAEU4KIt+p5w7qddXf8AjvByoj28bLUIYBHyJ0AOLuwX+tXsvN8s55P3Ya/TrJbzJv2f/gFc4WVPZ3hZ6RtAgM8AhgM3u16OPCQkABteNnSHl4UWAWzDfgs4wZ2zfW9mkx1ABp6WZMHLNK4AxKdedwIMYAEPx2mvlNwACvA0IxteJjoE8AE3pQAD6EHgtugXkxlAFZ4+yYGXTw0CqDtwcaEAA8g7EDtPmpnkBdCEp1dBAOPYAzB6NtyMBQHAERgrrAezFh0zYQH04KmndQBGpTe9wl1ZEIC/my8qkGXNqokK4AOemto9A2Dxw+roEeeSAg2AppC3aycogDk8Veke51uAMqcccADZC3w4NBMTwBaeCnSDl7mmAbxTwAFQxYIfi1xCArjDi0OikUA9A9gagQdADRt+3BqJCCAHTyeKdy5A0SlHwQdA9Tv8cPpJCKAGT2vRdPFJxwBOBQojACru4cswAQH04Gkq+tezNAxgk6NwAiBj5MCPF/0DmAh3/s7gKatbAM7IoLACICrN4YNd1j6ALTy1hAMFZc0CWJSIQgyAqDJ3IG2newCGLdzaMhAkolMA13GJKOQAiApvV8jqah5ABZ4cQ3iz2FCbALajKhFFEACR0ZzeIeWkeQB9eDqIpwu/tAnAmtUCDsCL0RgfIaGpdwAzeJqLFwxsdfoK2DXlA5hlBAwSKbx8CSOY6R3AWeLz3Ra/B0a8NawzXNpwNzelA6BA5NqTAzzctQ6gKHMPzAGeSrFMB2fHDlxtMqoBqCsNt/hWWecAevCWlVgL0YlpPUDTgauloR6AutLEhruOzgEs4Okss2LgM+oARPWOwwhArLiFq1eNAzAseJrLPIrtog5A+HD/Ek4A2WKl3uoO3j5ny81+QH/IbNx71DiAhtQhwGV4crJxBZC3BAOwAQUwWG72Z0u8HyJ3h4uJxgF8wltZarSwFVcA9Ap3eyPQAL5k90SO4OJT4wAu8HSXu1XmM7YAMhe4GwUQgKCzsuy46ru+AdTgbSV3ueQxtgCoC3d2PsgAWrLPdjm46OsbwJfkSZddeCvFFoBxgLvPIAPIw8XJkNxl1dA2AOMueURSCd6GsQVALbhzCpIBqI+XdiX/vDltA+jA20Vy4Si28QVAG7ibBhnABC7uRanFFUd9h4LX8DaVnk0rxhdAFe6ckiiAbV9C3mP73DFPvxrCxVjbAEoQaMveLIbX+AKghcSGheWD580aV7g5VyXuX6toG8AnvNkm/VCGt0OMAZQcuCsHFwC9w5XzVaIfyku42Wq7ICRr+bgQ/AZv1cgDEL/LLAMMIG/jG7txr1lv9sY7uGtrG8Crn9Vsc3ibxhKA4IdTDSIA14/LNCwKNW/w5uR8vDBY2fgCoHe4WwcYQO4OJVVtAxhCYE0/yTrwNowxgOwN7urBBUBdqBhruzHEvEHgxdcr49mIPgDhS8o2wABoobRFVdsA3iBgmfSzAQQ6MQZgnOGuGWAA2SP8uuS13RtYsH0uZs1DYB99AOJHlF2AAVDxCn+uJX13B88g0qBfbSDQijEAEryEBRIAVe7w41DQ93yAuv8NLT0I7OMMoAF3RyPAAKh0gry5qe8JIZmj/53tOQcCnegDED+kvgQZAJlTSLp1dD4j6B0ids7/9qqTEWMAFY+3k+ACIKptIMH+yOp8SljNgcJ+piZEBtEHIB6r7AUbAFFtbsPbZZTT+pzA7BlCFfqDcYWAlYsxgKIDV9dMwAEQZTuzK75zmtQNzU8KnUNorfbF8UUBM0tuyFWh5C5DRPmSqgy5K7bf5turg59Yh8V7u0DyciUXeQrbEGJ1clFwIFKjJ5MtVar1RqNRr5aylAwNR3kKawGRo0FMb6U7xFrkqgahN2Jay50emcPeQcSpEtOYuXvoUJMOhI4mMW0Za0jY0reOEPoipqvMCgKiR/kuxDrE9CT8+YtHIowzhKwyMQW6/PztAnnoQuyYlDfi55LbQsobeTGOEFvxaIB+ikdIOWXIUxsSPolppnqDnDoJbCFhQEwrXRtypiRSA/hVIGGMT0i65UhoDglOi5guChvIakouKBazG8T00L5D1oRkvEKG3SSmAfML0g4ZkmEcIcNpE4td/QRpdoXk1CDF6RGLV/YLPnRJ1gRy3onFqX2FD18koHCN7oInh+NTXsOPbYbk1SHpUCIWi+yno76RVWwMSRYPCcXBfL3DF6tCvmQOkDXlr4GoGf0r/HEa5FPFhqxznViEMv0z/OqRbz3I+8pSeHI7KQPybb1Ttt2sFtP3QbtikqzBTmhIYubwCt9eScEc8m49Ck0fUs7k2x0BOC+GVSOgx6oJiRTe7/BvTCrMA3zYNSgkO8iphxWAmLXomFEEUJs7UDBR32Pix7pGYShD0izEAMTsaTXkALK9HZR8kaqmA182TQreGJJsM9QAxNa1EAOoz2yomZC6AXw69rMULOMGWd2YAwCWxbAC6ELVJz1iAr/sWZ2C1IK0TewBwB6EFEAPikb0EGMJ/y7jKgVmAXnF2AMAVlmtAujTgzJbqLhN21kKQs6BvDcNAsCppE8Adpselj1AjbMr0+MG8OGsQwC4lXUJ4FajAOSPUNSkx+3hR12HAHAr6RHAoUiBKJzjC6ACX2ZaBIBTTocAliZRUAXEFsAYvtimFgFgpUEAIwpO4RhTAMYN/nT1CADDuAO4NylI+UM8AbTg00aTAJxSvAFsChSs7DaWAJbwq6hHAFjHGYDzZlDQzGUMAeQc+PWmSQBoxBfAuUYhMCbRBzCAb2ddAtjGFsCXSeEYOFEHsId/dU0CQC2eAC4NCk3zHm0AFSiY6RLAPJYAPk0KUekQaQCfUGCbmgRgZ6MPYF+jcJmzCAMw7lDR1SQAvEQdgDUwKHRdK7IA2lCy0SWARbQBOF85ikJpF1UAS6gpBhnAsPVDu9Mdfsz3DmTdIw1gXaGIGCMnkgDyDtS8BRlAlX6TqX/eIKcSXQD7BkWososigCEUncMK4IdM34KMXlQBnDoUsb4VfgAHqKqHHABRYQ8Jk2gCOHUNilx+FnYAVSibhRqA/D3DmygCOHYNikV1G24AEyizzNADoJIFoWv4AWxbFJ/OKcQAMnd4sOCpG34ANISYEW4AzrJOsTJ6l9AC6MDLmwUvmwgCMK4QyocZgDUuUuyM3imkAFbwUl7AUzH8AOgNQpXwAtj3TdKC0dmqBqA+CHCmLjy9RRBABUK1kAKwplXSSHXuBB7AK7yMRUtFzhEEQBZEGqEEsOmapJn86zngAI6iF/0NPNUjCGAPkWbwARxeC6Sl+pcVYABVeLkbwofwWQQBbCIP4Pim83VNmdbcCiqAL+FSi5JoKCCCAKL9Cji8VUh3mebkIhuA+iAAOuIvCXQj+AqI8iGwlJgDOcuDlfVoAB14cbIS/5ybWB8C1V8DU8GoDubnRwJYSyy5r8NbUYPXwMKTBvCXfHNUJjUFB176UgvG3sIO4ANCxjMH8IBXqd+rGTydQw4ge4fIlTiAEAYB9pJLBuvhBvAJoQ0HoKQm99medeBpFmoALYhNOAAlX5I/krVoKCDEABo2xHocgIqMJfnF2oe3bjABqO+SK3MAKl5kzz0twNsmrAAaW8i4EwegYg1PTfmhuGIIAZj1jzPkzDkAFQV4sjL0r3d4ewsggLeXf3T7g7ev9dGBtA4HoGIkv9+qCm/neDeHmhyAipOPJ7srvNXTsz38adTgycn5eGHELD0HRDyNqZ8n+ya8WWZqjoh5Fqbl5/y9jA1v3fgCaHIAKl7greRvB/kmtgA2xAGo2MDT0e89GsWYAnAqHICKIrx90K9yEHiLKYAP4gBUjPw+WW/h7RxPAHuDA1Byhqeb4XPtCFCPI4B7iTgAFXXf7/VlCMxiCMBpEgegZAZvbd+fGbDM6APoEgcQyiCAbSqszOpGHkCPOAA1XYV7OOoQ2EQcgN0mDkDRBt56SseJFiMN4FIlDkBREQJ5pUvuR1EGMM8RB6DqDd525KYDgXN0AZxbRByAsrPSr3LWgUA9ogDurxniANTVIVAhV2sIzCIJ4DQwiTiAEAcBzqr3ylhm6AFYszoRcQCPMG3Ff5wiRLrhBnD4bBhEHMCDehDYL7/hQGATVgD2fv7ayBIRcQAP2yI8RfUAll9/+hx/jAbdZiVHf+EAglBCiEaPbAzxwAEE5x0hOnMA2rsgTHUOQHMNhGrGAWhujlBZJgegtayNcHU5AK31ELINB6C1LcJW5AA0VkLoRhyAxj4QujMHoC/jivDVOQBtNRGBKQegrTkiYJkcgKayNqLQ5QA01UckNhyApraIRoED0FIZERlxACrSMAjwtzMHoCIVgwB/q3EA/qVjEOBvUw5AQwtExjI5AO3kHETnhQPQTh8izlHODUIbDkA7O4gsAlxWWOAANFOG0AvJMSwIjTgAzYwh4mQDfJw8cwB6MW4Q2ZCsF4jVOACttCA0CPSFYsoBaGUBoSJJ20DIMjkAeToMAhxI3hBiLxyARgYQeg94cfGaA9DIPuAfwBFiBQ5AGxUI3QKfWR5xANr4hNCU/KhB7MQB6MK4QagV+H8RNQ5AEy0I2RnyZQaxKQegiSWEluRPG2KWyQFETH3grkf+mA7EXjgALQwgliefVhBbcwBa2ENoG84mkwIHoIEKxF7JrwIkjDgADdTfxQrk2/BdrEf/eFX4I6hrvgu1iDHGGGOMMcYYY4wxxhhjjDHGGGOMMcYYY4wxxhhjjDHGGGOMMcYYY4wxxhhjjDHGGGOMMcYYY4wx9kz+BytIsXe/JX9bAAAAAElFTkSuQmCC;" vertex="1" parent="1">
                    <mxGeometry x="510" y="510" width="130" height="130" as="geometry"/>
                </mxCell>
                <mxCell id="_fm6HAd3_Kjj56SGNAd9-28" value="" style="endArrow=open;endFill=1;endSize=12;html=1;exitX=0.908;exitY=0.434;exitDx=0;exitDy=0;exitPerimeter=0;strokeWidth=5;entryX=0;entryY=0.25;entryDx=0;entryDy=0;" edge="1" parent="1" source="_fm6HAd3_Kjj56SGNAd9-14" target="_fm6HAd3_Kjj56SGNAd9-27">
                    <mxGeometry width="160" relative="1" as="geometry">
                        <mxPoint x="310" y="490" as="sourcePoint"/>
                        <mxPoint x="470" y="490" as="targetPoint"/>
                    </mxGeometry>
                </mxCell>
                <mxCell id="_fm6HAd3_Kjj56SGNAd9-29" value="" style="endArrow=open;endFill=1;endSize=12;html=1;strokeWidth=5;entryX=1.017;entryY=0.736;entryDx=0;entryDy=0;entryPerimeter=0;" edge="1" parent="1" source="_fm6HAd3_Kjj56SGNAd9-27" target="_fm6HAd3_Kjj56SGNAd9-14">
                    <mxGeometry width="160" relative="1" as="geometry">
                        <mxPoint x="480" y="670" as="sourcePoint"/>
                        <mxPoint x="497" y="760" as="targetPoint"/>
                    </mxGeometry>
                </mxCell>
                <mxCell id="_fm6HAd3_Kjj56SGNAd9-31" value="" style="endArrow=open;endFill=1;endSize=12;html=1;strokeWidth=5;" edge="1" parent="1" source="_fm6HAd3_Kjj56SGNAd9-26" target="_fm6HAd3_Kjj56SGNAd9-27">
                    <mxGeometry width="160" relative="1" as="geometry">
                        <mxPoint x="280" y="730" as="sourcePoint"/>
                        <mxPoint x="557" y="817" as="targetPoint"/>
                    </mxGeometry>
                </mxCell>
                <mxCell id="_fm6HAd3_Kjj56SGNAd9-32" value="" style="endArrow=open;endFill=1;endSize=12;html=1;strokeWidth=5;entryX=0.88;entryY=0.732;entryDx=0;entryDy=0;entryPerimeter=0;exitX=0.5;exitY=1;exitDx=0;exitDy=0;" edge="1" parent="1" source="_fm6HAd3_Kjj56SGNAd9-27" target="_fm6HAd3_Kjj56SGNAd9-26">
                    <mxGeometry width="160" relative="1" as="geometry">
                        <mxPoint x="480" y="850" as="sourcePoint"/>
                        <mxPoint x="577" y="843.5" as="targetPoint"/>
                    </mxGeometry>
                </mxCell>
                <mxCell id="_fm6HAd3_Kjj56SGNAd9-33" value="" style="image;aspect=fixed;perimeter=ellipsePerimeter;html=1;align=center;shadow=0;dashed=0;spacingTop=3;image=img/lib/active_directory/generic_server.svg;" vertex="1" parent="1">
                    <mxGeometry x="850" y="480" width="106.4" height="190" as="geometry"/>
                </mxCell>
                <mxCell id="_fm6HAd3_Kjj56SGNAd9-34" value="" style="endArrow=open;endFill=1;endSize=12;html=1;strokeWidth=5;entryX=0.977;entryY=0.36;entryDx=0;entryDy=0;entryPerimeter=0;" edge="1" parent="1" target="_fm6HAd3_Kjj56SGNAd9-27">
                    <mxGeometry width="160" relative="1" as="geometry">
                        <mxPoint x="856" y="550" as="sourcePoint"/>
                        <mxPoint x="620" y="543" as="targetPoint"/>
                    </mxGeometry>
                </mxCell>
                <mxCell id="_fm6HAd3_Kjj56SGNAd9-35" value="" style="endArrow=open;endFill=1;endSize=12;html=1;strokeWidth=5;exitX=1;exitY=0.75;exitDx=0;exitDy=0;entryX=0.008;entryY=0.642;entryDx=0;entryDy=0;entryPerimeter=0;" edge="1" parent="1" source="_fm6HAd3_Kjj56SGNAd9-27" target="_fm6HAd3_Kjj56SGNAd9-33">
                    <mxGeometry width="160" relative="1" as="geometry">
                        <mxPoint x="610" y="620" as="sourcePoint"/>
                        <mxPoint x="640" y="680" as="targetPoint"/>
                    </mxGeometry>
                </mxCell>
                <mxCell id="_fm6HAd3_Kjj56SGNAd9-36" value="&lt;b&gt;&lt;font&gt;Server&lt;/font&gt;&lt;/b&gt;" style="text;html=1;align=center;verticalAlign=middle;whiteSpace=wrap;rounded=0;strokeWidth=0;fontSize=24;fontFamily=Lucida Console;" vertex="1" parent="1">
                    <mxGeometry x="860" y="690" width="60" height="30" as="geometry"/>
                </mxCell>
                <mxCell id="_fm6HAd3_Kjj56SGNAd9-37" value="" style="shape=image;verticalLabelPosition=bottom;labelBackgroundColor=default;verticalAlign=top;aspect=fixed;imageAspect=0;image=data:image/png,iVBORw0KGgoAAAANSUhEUgAAAgAAAAIABAMAAAAGVsnJAAAACXBIWXMAAC4jAAAuIwF4pT92AAAAMFBMVEVHcEwAAAAAAAAAAAAAAAAAAAAAAAAAAAAAAAAAAAAAAAAAAAAAAAAAAAAAAAAAAAAlTPQ5AAAAD3RSTlMA8N0LbFYbky+ApkG5zPhVl/t7AAAX60lEQVR42uydf3BU1RXHX7qwXQiOQnE6lXaCtNaKYFamtLS0BW0AgXaIld8/ClVSEbXSCo1hoNlqQQU6QQViBCdUQQWhpPJDbMsELBZhYEKxlIJpo/2hrdWJuwZjYnZPIT/25/txzn33vXfvfTn/6YTd9/3svffde86552ia2xZYsLeoqrJ0+/ETpwb1bQRI9B00tP749tKyqqJZK8OawnZReeWOK8HU+h0rU5JDcG/ly0CwIWWzblNG/Ig9T/wJGOxz28Y8IP8vv2dZIdiw2JGJ82RWvxw42Bk5GQT2LG8ETpY4M1GyZTGwYlMBcLXo0enyMAhOKwQHLLZEjqkwclMjOGSJo7uFl1+yHBy1M1OFlv+LX4HjdsVNwsp/uAFcsfjjYg7+X4Nr9o54EyH0JLhqZyNivfhmguu2VaCX4kuF4IHFNgoif/gu8MhabxFB/2/BQ3vec/n55eCpNdd4/OovAI8t6uWmIPgoCGDXePY6mN8AQlh8rDf6Z4Mw9ooXPo8bQCDr77q3JFQOQlmzy1vjng0gmMWL3dR/RwEIZ9EN7ulfBULac27pnwOC2ml39N8Mwtrlbuj/HghsV/lcvwsEXgDB7Vpn9R8A4e11n+t3lMAakMJedUr/QpDEnnFGfw9Z9EPCkXNBqEEaABB34GwYqAaJrCXsvw2Aw9uBhSCZcV4Ie4J0VuzXBdCRhXAuSGjn+en/Kkhp93ILABXKCSDGK2RUC5Lax3z09wJpbS2XCdAgL4A2HpPgNyCxDfDTGVDXRtsGsEtuAK129X8DJLenbR6C62QH0Bb29wAA+IOtAdAgP4C4nSHwTVDAXvP3ALhwJGAfAreCEvZFv50Cs+0frBviYaCIfd6fm0Db28EeoIyN9pcfhJNnJNioDoAEyzJ4CShkJxkAlKsEoNkXsSAzo8eJKtQC8BH5GFCgFoA3qQeCXqCYUT3k96gG4EM/vwMY3gMhUM5o0fI+6gE46NdzANt5oEE9AHEfbwPpm8HrVQTwKQKASSoCaCIAKFQRQMzXuwDaTuCTagJYhAYwSk0AH6idF2lt5/17EqKehwrUBBBFO8RBUcM6x3uoCgAbIOqtKoDNSACfUBXAQH9vAwDe92dIIGUf+XsfhN8JVasKoMXfG0H8VnCXqgCwqTJ13QAUtTb/+sQ7LN4NoHsKdL8FfA2guXsj5POtcFP3Ycjnx2FsntClfneI+N4l5nunaE9VARR3B0b8nB9ByZBQdCuID47WqgkAnymYpyaAy/ybK99h+Ix5RV8DhKtjSjrFKLmySp4HKcXVlDwNDCQAyFcRQA0lXbxOPf1tFP0q+kRoNwcVPBEvIgFQcCdAvEBerZr+Fpp+7VuqAfinf+tndBi5ioZiu+E4Vb/2I7UAvEUGoNhmsIYMQK2bY010/WpdH95M2gR11pAoVEc/raBcT/XOA13nAByH3uoFiLpCQrilMC+sWngguQ3G7YbyilVbBpO1E3BrYd4iZWrqdrpCklMf5xXLe0OhoroXLVlYN4QLjeSdVythLpUd2AMJIOU9+7pam6A+SABpzpNdKg0AbRQWwGiVLtKn+QJrsQAGKpQqkJ4UUI4F8LFCtRTSQ8IFWABxdbyjLRkuDiyAdPeB5I6RmoxgBxrAQVUKjP8ls0QgGkB6GCkg8TrYHM6MdaABtCmSN1mcVRgDDSDTh3i/rPq/lJ0AiweQcWwKSLofbA1nZ33gATSpECYanZP3gweQFUuVst3WgNwEYAKATN+JjG+C5nBuDjwBQFZKVX6hbPpjNTqJXwQA2fkEX5P5DJDc01MAZPfluEsu/X/ULRFIAZCTW/59mfT/O0fVMCqAnPslMi2EzWH9nB8SgJxLdvIshLEagyKZJAC5AUVpFsLHNP0ZQAOgk1h3uxz6f2p4C4gGQCe7+nZZ9Xe6dWgA9KqwLhRf/zN6mq5nAqDXpW2V6PqfM7sHRwSg27t7jdj6XzW9BEUEoN+ob418+pMJX1QA+u3bD4ir/3WLy9BUAAa9GlfJNf/TLoKSAegPAe2ORhHlRzcYCEqVSicDMGrX2bNBPP3xYuvrL3QABkNACwnnJ22NGOY9FtgAYNixNfiIWPr7G18ISQttMQCIGX7wHJH0nzaWk948mQEA/M/w7x4UR/99JnLSY5ssAEyuWuQLshC0miWAhhrtAmg1TrANzBZB/yth9DVoJgCmnau/7Pn7sO3bhFIIbABMb1sEb/RW/xfMrwNmhTUZAZhfuXvYQ1dh7HELLXcDDwCpXFP9ZeZRr/RfE7GQEirgAyBm8UUlnrwOWqeSC0GwArC+c/SS6/MgttFaSU4xGGYA8FfLi0Yz3dW/FXEXOtTAD4Ceqz376550T/7ZCEZINXAEEENctyl5yh35g6eidPwSeALQC7fpIHBhFJzFydfN67EDAC5H/ePQhAJHvT5bIjj5OguAXQC5IXeD5XCaY9vj+JJ5GtYmAXcA6Cv4gT2HnJD/2YlhtHy9BcA+gHgN+vtHjvs7X/XvLd6tEcwgkG0TAIWApt05jttUiC/ep5GsR6MzAKAtQnqOOydw2CDGthDVa1pPo4XYNgAT36sRg/E7bQQREufWkdVrWr7h0LMPAJrnkZ8ncAECw7sxekF8WGOwUB04CICFQPtImLHsSrz4fkfW79MYLWhyNOUBAFrCrI8WWLC3qHKnKYd+58qKZq1k/oaLX1INDgOAlnmaLbvAYUrR+KrK0u3HT5waNGho/fHtpWVV64qm2FPe+fub6ecEwNwN7a2FysEFABC7RVD9+XXgCgBIbBBS/3CrbQc3AMa5CF6addoCRwBwOiyafkSskicA+O88sfT/HlwGAPGxIi3/PwPXAViFJd20+bhTF28AouwI0FFq7gAgcZ8Ib390YAoHgFZS9zMRz1d//HkbB4BYMcAyQuvw6kcJzR7EfSb15P6OdzvjwEySu2UR7lPLHQpVObD419GeE+nXrmVw3yzx4I2YT05MQP5OlzLl6ox1ffTTHxL5KzGWzrniJjflz2BwumM7LTFWVk/Au24hCE5j8rej64vXAavFN7qwFgRZA7DoTku1wG4xQgCT7cU/oTHB+GzvY7/DXo+V6LZ9zslfscnGkx3EfovtmiHvrndkYzDCZrixGL3EckhyuHoi59UguMd2Bg7+iSZxyebYNp0bg8CKTfZ/FHy7PW6NlhLn1j/AYeTPsBNgTRmhzwzP6lnv2RoIwb1PcEszGEj43kLgavVlY1bSxS+YXPkyz6cYTfjuWuBuiSEXKIQJ2hs5P0CUAt+xRkv96p9dN2a/EYjAgtWTxy89caUjX01qsuBYo6XGzt81OrT++LHtpaVVVUUdkeIdx/926rrMv+Fsl5Hm3yRQzopJAC5RTj++0U57i42QcgDwu4Aeas6Biy9B3EG1j7PvAS9nAC6QldfOSaUmMxetvTDWWhyAjuXyHvVmALbFxmaWAJHg1l4oOIA7DeR9oOBWoH0GEFts9FZuBhBbbKi0DHa0maC22FBoGXytXRC1xYY6y2C84/RJbrGhzDLYWQKB3GJDlc6r0c45jW6x0abYofg/XVManSQVccA56qFFut7raADJLeNcFfR3zehRDC02lBgCNckJjQbQ6qR72G07n/L14xMlI4w5cyK+Arq0hCiZoieT/1UhO4Bkp50+FACpmsKyOwdThbAqKADeTEUubpUbwNr0xB9CsnQqjiZzo6XsoUwA8KEzoWLPVsCOHroEAOm15e9XYAXseKFT7guk5RXL2mgpo/JLe9oPBcB5nklTXk2Amqz0V9KNkfQoys/lBHBvdsYDCcBJTfZJMCAn8Y0EoEWTfBJklH7qSAAnAcgsJHmX1AtA16GOBuCtjP97s8wLQFfqJw1AW2b6Trm8C0DyCgQNQFa7Lt3iXMJaU1gv640IoIlzCrVXC2CqvjoRQHZmoTy96FuzUkGGARuA7E5DL0iiP56VrJ+sr04FkJ1ZFpgkhf6c6pfJODcZQPYQMC3SI8wGoNjwJigZQE5VbRkI5BQbT1XXpQPIuWclPIFobrH1uTYA5BZWF5yATquVNM8+A4Dcq3ZCE9Ar91dhC4BObX2BCeiVuktvMcECQCfLPvCIoPr7hy3ufrAAgKd1/mS2kPqvsrwDyQRAt9GOiM229Ou5VNsGoN9oZ7hoZ8M2/ToemecXNgD6t61CYvkHDHqNBBt4ANCvqx64URz5huWMfgA8AKTHV9LtQcGHf252AyuAqMFd8OFieMv/bHgRZC4nAIZX7gIzBfj5jau3uNFjxPNBsNX4MmqokB8AMLxs4u0g+HQN6e6jDQAmrYa8GwRx0zJmdwNPAGYFpQPudxlqt8Omt+C49xi51uyu5cwC9+VHzK9/1vEGkBlryllwviOUfIMkX3sAoubXDvNdbLR01Eq+QQzDHoCccEPOavgTd+SftW43YtBjwiYA694CIyc4vhbEl0SsJRj1mLALANFbIDijzkn5V6PKtRn2WLANAP4Vtv73K5yaCbEtuJo8xpF8+wBwDbdGTnDAXXIGW5rKJIDHAYDpdiDNOHYZuvgCOjIRd/XfIpeFBwDr3ospBny6TcVolZgOgMMAKK0F2BrspLt6Bi+erpFsFTgOwKzTuR6EGcvYjgqxY+v2hzWimRfZ5wRAPwBhZgsmLz1FcaRH659lqb2laXPAFQBs3Za+snpy5c7rLD6537GyMftv09gscAO4BMBGXf3AgtV7J4+vXLrjxKC+/QZ1Wv2x0qqiKb976IdhzYYFLYOW/ADohaG9tpC1Y4YjAIg+Jph+qx5DvAEAPC+UflSTDb4A4O2IMPKRTTY4A4CYKH1mcD1mnOgxIka7pfnYnRYOAKmkrAB9ZgL4dA0cgF58ArOuDX9CnH4g7hOp0ZndXv78L1JOW5txH0o+uxye55X+EpoDbi3uU6upALxqtRP6LvE5kdvXCoaz69setNp5kTxUkRsXtsribs8Dlpgs8qMZ78ZEt7i4MyxhcT23YVdWZgfW4YjA8glNVsqB2Y7uFlY+obJuBdiwsw4jKPkx86O9gf0Om2WlB/PurpEeeTtk48E2Y7/GdtGM6NGpTshfsczeY+G9WBxSXtp4N5oZYTvWlMB/2VxO0TxuW4MRk5+y/zweNFmBIYs5NF1aPe4Ql4fxqMlK7Mj/yzvX2CiqKI7fZO26WIwoPqJ+QB6CNsUuDSrGRzahRBuMNLHlISqbCIRHIn6ArDwMq1LEoLExNchDxdBAaFapBLQ+4YOxgWBqGoyiNKjxEf1gMxtwoXQ7druvmZ27M/fcuXfm3rvnCwlpZvb85j7Puff83TSE4JFNdax+yXeA9zJOb9cenPMxfGZY0byLqcgKJJJ/jMP5hhEKW8l9V1RkZXj6yVh7S/fy8umzlsZYom+Ax7vFEFkp5AD7CxorzQWVlYlcXzkuq51BaPN05SyCqpEPE6EwlgyjMZBok3IALubFQ/hvicW0NoTqIQCuVq8HoMOgeWBALQCZa/BvEvoe57YW8tGeG3GpjxBAxE1oVOAeECRVnj6e/eeQaj2gihTAHdl/6lXrAVeRApii3lJAy+xFryEFUMs0LiSEjUosLCEFUJfbul+pDoDRia2XGECET1jE3yFwZIdLDCAfO3pQFQBN2ZMvxADy0cOAIk3gfG6DSwygkERUpAm05Za2xAAKGQQ1msBgfkQjBlCMnyrRBLIr22odAKBwnCzQK7//OaGxsRAAxRJqD8gPYF8h508OoChSLH8TyI/ovRAAhhpy0jeB3KouU1EHAOB4sQlIvivO9+YZMACXaY8OC7cNjBuCvAAAxj/9SmYA+SJYozWlAACMBdSCEq+GCjJLM6AADDI76F7ZF8H5NAcEQIr9iRkf7A9zogsCwFRMNTRB0g5QOJpSDwdwo/F/JF0MNJXcAAABGHJ5hUAA+6Y01QsCYC6kWS1hJzCcCKmnAWCuKS3fTJA2nE3rpQGgmY91Sae4FrGeeIIBMOwHZDw08yNmBAMCKDlVFZRqY3wD7tgnEEDpFaOqAYmCAGHcoUcogPEl/y/PQGgq8VHMcUIBWO4YyTIQDpna7rPUAKw3LOQYCM0qM4E6egCDlvtkMqwIh01LOGNkHwzA2gRkIGAubmLM7cABWO9YBDeL/v1LirsYdaPhAIzas3IQSJao7Jh28hQAMNdshCZgKW90THcHANMERCYw1GV794cGAO6mVdmSnb5HgOL28zYNAGzRhaCYOjuXLJezSk45UQEYxF52ekpA/6dYfmlpYpMKgD4V+zevCOc/pppNaX15OgAYsa2MzawTa/jDlPCwxPEoAZS5bVUt0lB4J+ZuprW8MCUArNhWZih8Vxj/sYXtrHtXWgDJcldfPxNk9YOtYIM57k8LACM6mDMhdHbwKju4CB41AFElVkZHvzKlGp7WWQIYKn//+25/Y6XlVHaw4Tt6AMU0K6YRPOqf+3+VK9gSqmMMwJBns9pSnxqBtrHsR8Hv19wAwGvu5d/ni86OTeGqx3T2ANJx21uGT3idNLArWlVOI90VACd5jdA7Xrp/psvmp6zSuQBwlFbwSmTGqVjVfTonAPZKSxlb5gmCM/alC8so7LAAMOxchYS7zo6jyk7onM4NgJ50JoCCC87xc7/GUWXHNlznGkBJ0qncpLjlfT7TfodznTr7CvPuAejpLqInsNWYGfW+h6REXch+ScYAQEni1SMGWs8jYZJ3OlXYZwGAnAArBskTpCo7VU6vYwLAUXPOzGBRws20oP3UTl6Cq8pxPc4GgJ6KI5CtoNPZSfa8BapEN9OZNCMA+lATgtqs5h3f3kXse0ZqBqqys3LCgGcAdG02orHA9ubGRJ/tg6f3tC/eGqZ4NlGJfWYAsFkIcg7Lt33e0rAz1plIdOYs1t7Q0r31GepHEubqGAIAym1xNtKwHEsA+s1RYfx/lTQWkWYJAJOL9scC5InaFFMAuva2CP5XbyafWc+zBYDPyHn8+UHJqcusAehpn4WGgJmp/5gD0PWvwz5+fmha6hcOALCJebEmv6LtJXwy8MEdvowEQYqEVITw2fOg25aNnveDwAKa/RXpl1oDT9F6OxgGPqUKNJAuBKmqad7k4VCwhTIXSVxdnq6U4hmPVoZLP6QNr1wmHl8oX+CBwIqriPM44tdQh/KmLeQ78rvLObQRv2iJixMru7nNCMv2uAyvkk/XD7mK4q7jMRgEjrjOtqTJ3+a2bkoNO3GRrPetexicwLgA6Gvu38ZOYGXEezYJ19sAL2Vx6Gf4BwZ6S8y81/1R2KhZuzDswvnGDxgevAEpbLCsrE4FIdj6MFN9FR2osFHN+OW16+d0kwa9Zx1t3MDa+YxNBn2BXg6/QDt7oGFx+eB/4J5tI67z0VfJGGxyfoPjKRdt0tmTsZ0NBWvcsSHRP3FA52spWB8cq6tm42EA1JMY6QIOw5sV8z8FnYdmVHYPYKs3J2MP4DMR+meD8IXoGqUA/AkHcEWF9wC1NFYu0GzGVNJYidAACKrjf4puP35MGQB76QCMUcX/NG1QRpWlwGTamJQiy2GNOjyryJbwIqK2JSr4P+wiT6OE1NRUN2F5BaIC1FOAKk1gn7vMzHsVughUZzEUcQlA9iZwwa3/kocF3EyBtIcG1ZkCFWgCKSbHdeRdDmpdLPyXOEC+n9EZlZck9f88I/9lFdtKszuoJec42IbY2YsS+n8r03N68nUCNjOgvJ0gzfq06keSrQCaGPsvmcBISYH5yusE+xEHWyWP/z/zOa5/WBb/f+d1W0WSjfElbjc25BgIL0URN7Op01YR/ttV6hPF/g4jrva64P5fz9l/hL6scP/FJnA78sK+ENZ/ryr7iErAu5IuQhJIe1nI4jUB4x9xhCqZwPdh5K2tFGtN+Dzy3KoE2hcMzUY+mDgKK6ejyB97UozR38daVisHKvjzizEQ+F3KjKqaE0ObEkW+m48aM//MRyKYX0JDaSGqOWYbwSEfMj/rwkgcC3zi9XRwOo7EspCng+G0x5F4dr9nGjMe1OsSGIHWEUfiGneZnfS6KBLblr3A0f1bdoeR+BbipDGTXvsyksVamTcD7cR8JJWxbQbT5oaRfLa6kUktpOTBuVEkq4WObHIXOayBaYyIaIHWXXQNYbh2/eIoUsMCq5s39MF8BwusSEBh+6JYwqlM2G9nD+xU0HdTBGnF0eYdnYlT/X2Trv034/Ov103vP3WyM9be0r3cp9/0P2A/oKhLnnaFAAAAAElFTkSuQmCC;" vertex="1" parent="1">
                    <mxGeometry x="1160" y="492.5" width="147.5" height="147.5" as="geometry"/>
                </mxCell>
                <mxCell id="_fm6HAd3_Kjj56SGNAd9-38" value="" style="endArrow=open;endFill=1;endSize=12;html=1;strokeWidth=5;" edge="1" parent="1">
                    <mxGeometry width="160" relative="1" as="geometry">
                        <mxPoint x="1153.6" y="547.0040751846533" as="sourcePoint"/>
                        <mxPoint x="949.9959264726268" y="552.5643994149694" as="targetPoint"/>
                    </mxGeometry>
                </mxCell>
                <mxCell id="_fm6HAd3_Kjj56SGNAd9-39" value="" style="endArrow=open;endFill=1;endSize=12;html=1;strokeWidth=5;entryX=-0.006;entryY=0.663;entryDx=0;entryDy=0;entryPerimeter=0;" edge="1" parent="1" target="_fm6HAd3_Kjj56SGNAd9-37">
                    <mxGeometry width="160" relative="1" as="geometry">
                        <mxPoint x="960" y="592.7" as="sourcePoint"/>
                        <mxPoint x="1150" y="589.9985781990522" as="targetPoint"/>
                    </mxGeometry>
                </mxCell>
                <mxCell id="_fm6HAd3_Kjj56SGNAd9-40" value="&lt;b&gt;&lt;font&gt;Database&lt;/font&gt;&lt;/b&gt;" style="text;html=1;align=center;verticalAlign=middle;whiteSpace=wrap;rounded=0;strokeWidth=0;fontSize=24;fontFamily=Lucida Console;" vertex="1" parent="1">
                    <mxGeometry x="1215" y="670" width="60" height="30" as="geometry"/>
                </mxCell>
                <mxCell id="_fm6HAd3_Kjj56SGNAd9-41" value="" style="shape=image;verticalLabelPosition=bottom;labelBackgroundColor=default;verticalAlign=top;aspect=fixed;imageAspect=0;image=data:image/png,iVBORw0KGgoAAAANSUhEUgAADwAAAAhwBAMAAABikNZBAAAABGdBTUEAALGPC/xhBQAAAAFzUkdCAK7OHOkAAAAVUExURUdwTCgoKBISEgMDAwAAAExMTICAgLLxsV0AAAAEdFJOUwBGhbvdw5HiAAAgAElEQVR42uzBAQEAAACAkP6v7ggKAAAAAAAAAAAAAAAAAAAAAAAAAAAAAAAAAAAAAAAAAAAAAAAAAAAAAAAAAAAAAAAAAAAAAAAAAAAAAAAAAAAAAAAAAAAAAAAAAAAAAAAAAAAAAAAAAAAAAAAAAAAAAAAAAAAAAAAAAAAAAAAAAAAAAAAAAAAAAAAAAAAAAAAAAAAAAAAAAAAAAAAAAAAAAAAAAAAAAAAAAAAAAAAAAAAAAAAAAAAAAAAAAAAAAAAAAAAAAAAAAAAAAAAAAAAAAAAAAAAAAAAAAAAAAAAAAAAAAAAAAAAAAAAAAAAAAAAAAAAAAAAAAAAAAAAAAAAAAAAAAAAAAAAAAAAAAAAAAAAAAAAAAAAAAAAAAAAAAAAAAAAAAAAAAAAAAAAAAAAAAAAAAAAAAAAAAAAAAAAAAAAAAAAAAAAAAAAAAAAAAAAAAAAAAAAAAAAAAAAAAAAAAAAAAAAAAAAAAAAAAAAAAAAAAAAAAAAAAAAAAAAAAAAAAAAAAAAAAAAAAAAAAAAAAAAAAAAAAAAAAAAAAAAAAAAAAAAAAAAAAAAAAAAAAAAAAAAAAAAAAAAAAAAAAAAAAAAAAAAAAAAAAAAAAAAAAAAAAAAAAAAAAAAAAAAAAAAAAAAAAAAAAAAAAAAAAAAAAAAAAAAAAAAAAAAAAAAAAAAAAAAAAAAAAAAAAAAAAAAAgNm7dxyngiAMo+qEeKKOWRLsYECa2v8SkEBIIB5j9310ddc5uW3p3uBL6pcBAAAAAAAAAAAAAAAAAAAAAAAAAAAAAAAAAAAAAAAAAAAAAAAAAAAAAAAAAAAAAAAAAAAAAAAAAAAAAAAAAAAAAAAAAAAAAAAAAAAAAAAAAAAAAAAAAAAAAAAAAAAAAAAAAAAAAAAAAAAAAAAAAAAAAAAAAAAAAAAAAAAAAAAAAAAAAAAAAAAAAAAAAAAAAAAAAAAAAAAAAAAAAAAAAAAAAAAAAAAAAAAAAAAAAAAAAAAAAAAAAAAAAAAAAAAAAAAAAAAAAAAAAAAAAAAAAABgyMvAZ5rHBgCH9NeBD3344sEBwAEf4vW2TwEAP7QYDHC8eHgAMN7f0QArMAAc6O9wgMPzA4AhcSjACgwAI/rBADuFBoDR/h4IsAIDwGh/jwR46LMAUNnPhh4KcHz0IAHgCS1OCbAxEgAM9fdggBUYAEb6ezTAxkgA8Kg4McBOoQHgMf3MACswADzf3+MBHvoGAKjm93qeEGAFBoBn43lGgJ1CA8A7WlwQYAUGgOf6e06AjZEA4H/iogA7hQaAZ/p7UoAVGAD+qV8XYAUGgCf6e1qAh74IAPb312yeF2Cn0ADwcDVPDLACA8AfWlweYAUGgAf7e2qAHWIBwO/ijgArMAA81t9zA6zAAPCLfleAh74OAMr19+wAx0ePGwDe7eXpAXYKDQDftbg1wAoMAO/294IA+29CAHivv1cE+KunDkB5cX+AjZEAKK/PCLACA6C/MwI89K0AUKe/FwXYHBiAwh4I5VUBNkYCoKwWEwNsjASA/s4IsDESAPo7IcBOoQEoKWYHWIEBKKjPD/DQdwNAhf5eGmBjJACKeTiR1wbYGAkA/Z0RYAUGoJAWaQJsjASA/k4IsAIDUEZkCrAxEgD6OyPACgxACT1bgI2RANDfGQF2Cg3A9p5t4y0BVmAA9HdGgP03IQBba5E0wMZIAOjvhAA7hQZgY5E3wAoMwLZ65gAP/RAAbNrf+wJsDgyA/s4IsDESABsajOKdAVZgALbTYoEAGyMBoL8TAqzAAOjvjAAbIwGwlVglwEM/BwA59XUCbIwEgP7OCLBTaAD0d0aAFRiALRyr4YQAO4UGYAMtVguwAgOgvzMCbIwEQPn+TgmwAgOwuFgzwMZIACytrxpgBQagdn9nBdgYCYBlndHBaQFWYAAq93degI2RAFhSi7UDrMAAFO7vxAAbIwGwoFg/wPHJawSgaH+nBtgYCYDF9D0C7BQagKL9nRzgNwUGYB3nBXB2gCO8TQAq9nd6gD97nwCsocVOATZGAqBif+cH2BgJgCXEbgE2RgKgXn8zBFiBAUiv7xhgc2AAqvU3R4DfvFkAMju9fEkC7J+RAMisxa4BVmAAavU3S4DNgQEo1d80AXYKDUBSsXeAFRiAlPruATZGAqBOfzMFWIEBKNPfVAF2Cg1AMlclL1eAFRiAXFrUCLAxEgBF+psswAoMQI3+ZguwMRIAaUSlACswAEn0WgE2RgKgQH8TBliBAUjg4thlDLAxEgDb9zdjgJ1CAzBbi4oBjs/ePAB79zdngOOTdw/ARFE1wMZIAOzd36wBfnvx+gGYpBcOsAIDsHV/0wbYGAmAOW6pXOIAKzAAG/c3cYCNkQC4XwsBVmAAtu1v6gAbIwFwsxBg/8sAwO26ABsjAbBzf5MHOL4qMAA79jd7gI2RALjLnXnLH2Cn0ADco4UAKzAAm/d3gQAbIwGwX39XCLACA3C5EGBjJABu1wVYgQEo0N81AmyMBHxj715y2ziiMIyiEITjzqTH9lrCbCAQNZYMu/a/hMCIB1JC8aV+1L33nB2ki9JHOfWjIVl/gwRYgQFYzw5dCxNgYyQA1tK6AF/w1ScEgDz9jRNgYyQAEvU3UIC9mxCAFXQBNkYCYHOzAHs3IQB1+hsqwMZIACxrt6IFC7AxEgBJ+hsswAoMwHJaF2BjJABK9TdcgBUYgIV0ATZGAqBYf+MFWIEBWMIswMZIAJTrb8QA9799bgD4nL1TFjPAxkgARO9vzAArMACf0boAGyMBULG/UQPsKjQAD+sCrMAA1Oxv2AB7NyEAj5kF2BwYgKr9DRxgV6EBCNuw0AFWYADu1boAGyMBULe/sQOswAAE7W/wABsjAXCHLsAKDMDmZgH2ZiQAavc3fIAVGICI/Y0fYGMkAOLFK0OA+1efKgCuaV2AF7+I9cXnCoBg/c0QYFehAQjX3xQBVmAALusCvNKbkRQYgI/NAmyMBID+JgqwMRIAkbKVJ8AKDECk/uYJsDcjAXBO6wJsDgyA/qYLsDESAP/XBViBAdDflAHu33zSAHhrFmBzYAD0N22AjZEACNGrdAH+4d2EAETob7YAmwMD8EvrAuwqNAD6mzzACgzAT12AN78KrcAAzAJsjASA/pYIsDESgP4KsAIDsLXxQ5U1wN6MBFBZ6wKswADob6EAGyMB6K8AKzAA2+kCbIwEwOZmAVZgAPS3YICNkQD0V4B34d2EAMWEKVTyABsjAdTSugC7Cg2A/pYNsAID6K8A7+KbAgNU0QXYGAmAzc0CbIwEgP6WD/APBQYo4NAF2BgJAP0VYAUGyK91ATZGAkB/BfhfJwUGyKwLsDESAPorwAoMUMAswObAAOivAL+/iOXdhAApHboAGyMBoL8CbIwEkF/rAmyMBID+CvDZq9AKDJBLF2BjJAD0V4CNkQAKmAU4zkUsBQbQXwE2RgLgYYcuwAoMwNZaF2BzYAD0V4Cv+abAAPorwMZIANyvC7ACA7C5WYCNkQDQXwG+tcDeTQigvwJsjARArQzVDbAxEkBYrQtwZN5NCKC/ArzLVWgFBtBfATZGAuAWXYDjM0YCCGcW4AwXsRQYQH8F2BgJgCoBqh5gBQbQXwE2RgLgotYFWIEB0F8BNkYCKKALcKoAKzCA/gqwMRIA580CnC3A3k0IoL8CbIwEQIHyCPCvAk8+2wD6K8DGSAC81boAZ/0i4io0gP4KsAID8EYX4MQBNkYCGNUswJkDrMAA+ivAxkgAJO9vnx54GDn/b7gCAwzo0P0BnP9xGCMBjKZl7e+rfxB4dxVagQH0d+T+5i2wDzuA/o7cXwUGYH1Z+9t9KzFGAhiYC9ClCuzdhAD6O3J/jZEA0N/tBkhvGSMBsBoD4HpfThQYYH8uQFcssKvQAPo7dH8VGAD93WyA9I4xEgDL09+q31EUGGBPBkiFC/zF5x9Afwfub94xkgID7MQAqXiBJz8DAPo74AXo9P9U4N2EAHswQFJgYyQA/R26v8ZIACjKphewFBgAPdmxv95NCMASDJAU2BwYQH+HHSC9ZYwEgJRs31/vJgRAf7e8AJ2+wMZIANswQFJgBQbQ3+V4dsZIAAMzQFJgBQbQ31D9TVtgb0YCWJsB8CcdFBgA/d1ogFTgERojAfjzbcgL0OkL7N2EAOsxQFLgjy9iGSMB6O94A6R3XIUGQH+3768xEgD+btvwAnT+Ans3IcAKDJAU2BgJQH8DDpDeyjoHnvykAOjvgBeg0z9QBQbwB9vQ/TVGAuAGBsAr6AoMQNH+7nIBK3uBjZEA9Hfo/poDA1DxL7Xd+2uMBMBFBkirOSgwAOX6++rhGiMBjMsASYEfuAqtwAD6O3J/zYEBOMsbkDxhV6EB1CHPBWgFBuAC/VXghy9ieTchgP6O3F9jJAD+wwDYgzZGApCFdBegFRiAMwyQFNgYCUB/8w2Q3ukKDMBPBsCetzESgB5kvQCd/omfFBjgLvqrwMZIANszQNqBOTCA/roA7bEbIwEIQY3+ejchQHEGwLsxRgIozABJgRUYQH8rXIBO//TNgQH01/Pf5SKWdxMCXJG2vy9BDsAYCaAkA2BHYIwE4Jd/oQvQ2Q/hhwID6K9jcBUaYCRpB8A91jlkvQqtwAClfu+HuQCdv8DGSAD66yz2uIilwAD6OzZjJIAyfjdAUuDVA3zyg0YVv/25IF9dswf45AL0SDJehX76S4CpE+DjggQ4fYBP+qvAa/p+FGAEWIA5G+BnA6SRpLsEfRRgBFiAOR/ghAWOfCItXX8FGAEWYD4IcLoCT6GPpGXrrwAjwALMRwFOVuAp+JlkKvBRgBFgAeZSgFNdxHoJfyh5xkhPAowACzCXA5yowK8JTmVO1V8BRoAFmAsBPumvAi8/QBJgBFiAuRrgZ/0dSab+CjACLMBcCnCSAqc5mCQXoAUYARZgrgY4RYGnNAfT8vRXgBFgAeZygBMUeEp0MtELfBRgBFiAuTXA4S9ivaQ6mthjpCcBRoAFmNsDfNJfBV6+vwKMAAswVwMcusCv6Q5nztFfAUaABZjrAT7prwIvegFLgBFgAea2AMe9iJXyeFL0V4ARYAHmhgCHLfCU8nhahv4KMAIswNwS4KAFnpKeT8QCHwUYARZgHgnwSX8VeLkLWAKMAAswNwc4YIFfEp/QHL6/AowACzA3BjhcgV9TH9Ecvb8CjAALMLcG+KS/CvyY70cBRoAFmE8EONZFrPSHFPgCtAAjwALMXQEOVeD8h9Ri91eAEWAB5vYAByrwVOCUohT4KMAIsADz2QCHKfBU4pha5P4KMAIswNwT4CAXsV6KnNMh6AVoAUaABZi7A3zS35HMcfsrwAiwAHNfgAMU+LXQSY1e4O9HAQYBZqEAP+vvSEJegBZgBFiAeSDAwxe42FlF7a8AI8ACzL0BHrzAU7GzakH7K8AIsABzd4CHLvBU7rDGLfCTAIMAs2yAB76I9VLwtA4h+yvACLAA80CAT/qrwJ/sb4QAtz8WN2X4j/AbMmyAW+BPsgD/w97dJLdxJAEYFUQG16CGwTUt8wCyjANoyD4C6bXtIHX/I8yMFBP2WPaYBCqrMqvet9AWAPvnobsrhewC/7Lo9so4jPS01Qf47da8/hcvV80/w50zZFmAz12GTwHwI38JfJK/AAYwgAGs4wDOuBBr4S1WawE0gAEMYADreIATCrzyFtuV8xfAAAYwgHUkwOkE3i+9yXIJvAEYwAKw4gBOJvB+8W2WSeAHAANYAFYkwKkWYv28/Ea7ruUvgAEMYADreIATCfyLjZZG4KcNwAAWgBUM8CN/CXykvwAGMIABrFMAzvIY2Cb7UpUF0AAGMIABrFMBTiKwLfa1XSF/AQxgAANYJwGcQuC9LZZG4A3AABaA1QfgBALzN4/ADwAGsACsXgAPX4j1s+31uy6q+AtgAAMYwDoV4Ef+Zuq6iL8ABjCAAayTAR4qsAGkP5Z/AAnAAAYwgNUI4JEC21hpbkI/bwAGsACszgD/5Aa0S+BX+gtgAAMYwGoA8DiB9zbWNw16CrwBGMACsPoDPExg2yrLPegNwAAWgDUC4EGPgS3BynIP+gHAABaANQbgR4+AVwb49f4CGMAABrAaAfwI4Cz1fwj8tAEYwAKwhgH8COAkdX8I/LwBGMACsAYC/BOA1wT4KH8BDGAAA1jNAB4gMIATAHycvwAGMIABrHYA9xcYwAkA3gAMYAFYowHuLrAxpPEAPwAYwAKwxgPcfSGWbfUnXVfwF8AABjCA1RTgRwCPL/sAEoABDGAAKwDgRw+BR7cr4S+AAQxgAKsxwI8eAq9zB/p5AzCABWClAbjvQqy9rTXuAvgUfwEMYAADWK0B7iywrfWH8g8gARjAAAawYgAm8CL+PgAYwAKwcgHsMfC4rqv4C2AAAxjACgCYwPwFMIAFYI0AuK/AP9ti/f193gAMYAFYCQEm8IguCvkLYAADGMCKAdgwUv92lfwFMIABDGDFAEzgmf39vAEYwAKwsgJsGKl3ZQaQAAxgAANYoQD3FfhX/tbyF8AABjCAFQawYaSeXRfzF8AABjCAFQcwgaf092kDMIAFYCUH2DBSr0oNIAEYwAAGsMIB7ivwnr91/AUwgAEMYIUCbBipR8UGkAAMYAADWPEAG0biL4ABDGAAawTABI6v2gASgAEMYACrB8CWQkd3XdJfAAMYwABWNMAEnsbfpw3AAAYwgAFcCGDDSJP4+7wBGMAABjCASwFM4LguqvoLYAADGMDqALBhpKh2Zf0FMIABDGB1AJjA9f1tugALwAAGMIDVCWDDSDEV9hfAAAYwgNUF4L4Cr7IUurK/AAYwgAGsPgAbRmpf1QEkAAMYwABWT4AJzF8AAxjAANYIgA0jta3uABKAAQxgAKsvwJZCt2xX3F8AAxjAAFY3gAlc09/PG4ABDGAAA7g2wIaRSvr7AGAAAxjAAK4OMIFbVd9fAAMYwABWT4AthW7TdX1/AQxgAANYXQEmcDF/nzYAAxjAAAbwFAAbRjq96gNIAAYwgAGsEQATmL8ABjCAAawRABtGOq36A0gABjCAAawhABOYvwAGMIABrBEAG0Y6pQkGkAAMYAADWIMA9tuE/AUwgAEMYI0A2DDSsU0xgARgAAMYwBoGMIHT+/u8ARjAAAYwgCcE2DDSMV1M5C+AAQxgAGsMwJZCv75pFkADGMAABrDGAUzgxf0FMIABDGANAtgwUmJ/HwAMYAADGMDzAkzg1zWZvwAGMIABrGEAWwr9miYaQAIwgAEMYA0GmMAp/X3eAAxgAAMYwJMDbBjppV1M5y+AAQxgAGskwARe1l8AAxjAANZQgA0jvaTJBpAADGAAA1jjASZwMn8fAAxgAAMYwGsAbBjp75vSXwADeKF27xt2wnUEgAHstwnT+vu0ARjAAJ43AAPYMNKrup7TXwADWADWcIAJnMTf5w3AAAYwgAG8FMCGkf66i1n9BTCABWAlANhS6L9qygEkAANYAFYWgAmcwN8HAAMYwAAG8HoAG0Zazl8AA1gAVgqACfxnzewvgAEsACsHwJZCf9u0C6ABDGABWIkAJvBa/gIYwAKwsgBsGOl/u5jbXwADWABWGoD7Crzn76gBJAADWABWMoANI/3W1AugAQxgAVi5ACbwQv4CGMACsBIBbBjpv83vL4ABLAArE8CWQn9t1l9AAjCABWBlBZjAnf193gAMYAADGMAANoy0jr8ABrAArGQAE3j6ASQAA1gAVkqAV18KvVvDXwADWABWNoAXF3iBASQAA1gAVk6Alx5GWsZfAANYAFY+gFcWuOPnftoADGAAAxjAADaM9KU1FkADGMACsLICvKrAC/kLYAALwEoJ8JrDSBcL+QtgAAvAygnwir9NuMgAMIABLAArNcDrDSOtswAawAAWgJUY4OUEXsxfAANYAFZWgFcbRlpnAAnAABaAlRvgtZZCXy/mL4ABLAArL8ArCbzSABKAASwAKzvA6wwjrecvgAEsACszwKsIvNYAEoABLAArP8BrLIVebQE0gAEsACs9wEsIvKS/AAawAKzcAK8wjLSkvwAGsACs5AD3FfjXuf192gAMYAADGMAANoz0pQUXQAMYwAKwSgA8t8Cr+gtgAAvAyg/wzMNIKw4gARjAArCqADzvbxOu6y+AASwAqwLAsw4jrTmABGAAC8AqA/Ckw0gr+wtgAAvAKgHwnAIvOoAEYAALwCoE8IxLoZddAA1gAAvAKgTwfAKv7S+AASwAqwrAsw0jLe4vgAEsAKsMwHMJ3HMA6QHAAAawAAxgw0hf2q3uL4ABLACrDsATCcxfAANYAFYhgOcZRlp6AAnAAO7c7vLdu/fv33/8+PHf/15e7pc9tQMYwGUEjlsK3fFDPG8ABvDCAF++//7Hbz/Djx+/W1JhAAPYMNI1fwEM4A4Xvu9//D+f4/7jdwAGMIBXE5i/AAZwB30Pf/9ZPl4CGMAAXmkYaeFfQAIwgDv17vDCT3O/1GUwgAG8+G8TWgANYAAHX/y+mN+vl8H7ZU7tAAbw2sNI/AUwgJNc/f72NBjAAAbwAsNIPf192gAM4OUAfjW/K92IBjCAlxaYvwAGcOTd59tjP9US96EBDOCVl0JbAA1gAAf2jxM+1w8ABjCAZxaYvwAGcODl7+G0Dzb/RTCAAbzuMJIBJAADOK53VAEwgAmcwN8HAAN4IMC7hq/30uvS7xu8VtRt6LNOO9HbjIf6P5E6H8D1hpEMIAEYwGEAH736qsvlPYA1F8DlBOYvgAEcBvCJj39/N5C0B3APgC/bFry4oO9bLQFwtWEkv4AEYABHAdxwU4UIDODAHeQ/fQo9iA59D58aANf6bUL+AhjAUQA33VIRAgM40rTw29yd32kRgCsNIxlAAjCAowBuvKECBAZw8H4ZujS/6eX6p3kAriNwR38/bwAG8FIAN99O7QUG8B87b/wikcfQWedTQBmAqwwjGQAGMICjAA7YTM0FBnD0O90HHkPnnd9oHYBrLIW2ABrAAI46Y4WY01pgAEevwrqpcgy9mQngEgLzF8AAjgK42fxR6DNFAEevwvoQeAzddt6xCgFcYBjJLxACGMBRAAf523pZLYBDVdtil0H3fp+VAM4vsAEkAAM4CuDbsB30BwCHmnPef68ssgi6FsDZl0IbQAIwgKMAvgrcQ28AHAnwWdsXuS9yHriZDuDcAhtAAjCAowA+C91F9wAOBLj1Kqy4Q+is905VDODMw0gGkAAM4KhTVjA3dwCOfOxZ5tBqebP8RRfq1QDOK7BfIAQwgMMAPoyRA8BN/oyNH9/HLYO+7Xzw1AM46zCSASQAAzgM4KvwnfQGwHEAn7d9lU9hh9Ah/m9RHOCkAhtAAjCAwwA+i99Jm/1/HAAO335xc0jdr9PrAZxzGIm/AAZwFMC7gXYAuMEfsfEGvC9xGriZFOCMv01oABjAAA4D+LbLbvoBwGHfYhq/zDSLoEsCnG8YyQAwgAEcds4667ObNroJDeD4r1D7oCOo5bPql12mlwQ4m8AGgAEM4LAT6260HgA++U94VePYuup87FQFONcwkgEkAAM4DuDbbjvqDYCDAG58EyNqGfSh+9e5ogD3FXifZgF0SX8BDOATAD7rt6PeAzhInbd9XqbcIuiyAOcZRjKABGAABwJ86LinfgBwkIz998sj2vU//qsCnGYYib8ABnAgwFddd9U9gGMAbvs16r7AWeDN3ABnEdgAEoABHOffLgkgAD7t79d434xZBn3e/ztCXYBzLIU2gARgAAeeV28776t7AIcAfFbh4LrqfOjUBjiDwAaQAAzgQP66K3MH4BCAG7/bDyEHUMtve5/mB3j8MJIBJAADOBLgQ/ed9QbAIbfw275OzBzSof9XhNIAjx5G4i+AARwJ8Fn/nfUOwCEAH3JtpSSLoIsDPHYYyQAwgAEcCvBhwN56A+AIgNvunPfpTwJvVgB4qMAGkAAM4FCAz0fsrXcAjgC48baMOH7OBnxDKA7wyGEkA0gABnAkwLvDkN31BsABADd+uxFzSOdd/hBzATzutwkNIAEYwKEAn4/ZXe8AHOBO44HuiGXQtw3f36dVAO67EOuzASQAA7gTwKP21xsAB1z4tb2dEbEM+jDgC0J9gDsLvOcvgAHcA+DzUfvrHYADAL7t9UJHN+IW+QQAdxb48+V+15Pf2gugAQzgI09bg54An/yAEcA9VmEFLINuepP8zUIA//R55ur7C2AAHyHfWUpGAHzsX67x+51jEfQUAE8t8NMGYACvCPBh4B67B3BzgHd5NlGeRdBzADyxwM//Yu/ust22jQCOQ5byTjvyuxIz77w2F0CRWkDao9sV6O5/C21P2zgfTSySg/nCHxsQBczgRxIzhzcABuAWAT5aRuwAwPLwjM7TSzJ9prYATitwCn8BGIDXA2z5ALzrhBGAVaqw5MugJSNuaAzgV/wFYABOBLAxLwMAiwN8UvulOEXQaQDOKfAdgAG4TYB725CdAVicxaOXFXJUBJ0H4Ff8BWAAzgLwwTpmOwCWBlh2TRfPW8DcIMCv+AvAAJwE4LNnSQB427R5uUVyVASdCeBshViPGwADcJsAmz8A73jAAmCdKqyL4+yZWgQ4mcBvNwAG4EYBPtoH7QWApQGWjc9BOHt6k+DJBHAqgRP5C8AAvBLg0TklALxl1mRvq6T7kMYKcdwYwIkEzuQvAAPwuo3LhS0dAAsDfFCPTfdF0MkAzlOIdQNgAG4W4LOHqB0AWPq9gZNTekdF0NkAziLwHYABuFmADy6idgZgaYB70d+STZ6j2iykBvgVfwEYgGMDfPIRth0AC9Nz9rA+Cl1IU8MAZzgGftwAGIDbBXj0EbYTAAsDLFuFJVsG3dukfjqAEwiczV8ABuA1AHuRZQZgYYBlL1m2DHqUDuNWAQ4v8NsNgAG4YYDPXuK2A2Dh00/N31o5BC9sTXlYQoCDC5zPXwAG4LeTlcoAACAASURBVDXkuYnbCYCFURy1g9OkC2luHODYhVg3AAbglgE+uonbGYCFAZaN0ARF0DkBjizwHYABuGmAez+B2wGwrD0nB0cE9a9saB7gV/wFYAAOCfDBUeAOACwL8Du3GXY2uq6kAL/iLwADcESAT44CdwZgWYBl764k+5B62ShuHuCYhViPGwADcNsAj54iF4CFjz9HzR8LUASdFuCQAr/dABiA2wb44CpyBwCWNfGsHZ3Oi6DzAhxQ4Kz+AjAAPw3wKZQnALxywkSXd/GZ/1cAjinwDYABuHWAXb2B3rTFA7BanvnsQhoAOGQh1g2AAbh1gL2pcgFgUYAPTlPsbHVVmQGOJfAdgAG4dYA/j85CdwJg2devogssVwbdWz2Xpwb4FX8BGIADAexuzAAsC7CkdFtuj+rfFywAHPAY+HEDYAAGYHcDgGUBPqn+mkUX0uwa4B/+9Zs/IXAzBdAADMChxwWARUkUnZ3FY/pPngH+TzzxDGzp79KVTwAMwABc5yELgPWiJXwRtDLAP/93ERDYzt+r+CYBwADMITAAP3e/IvpznVDmnMzyXhXgv/+SsxRiWTUgzRVqIQAYgNOODoBFARbdeaTKoCUvqvgF+Gs0vUNgmwLoxSJ7ARiA2zkEBmC9KiypMujR7Fz6O4sHYOXfxd9fn//W6McDYADmEBiAn5mto+ni1H8vfvUL8M+//uGPCGzQgHSpcyMKwADMITAAP8PPwXRx6l/T5Bfg356m0Ixk6a9qGRYAA3DcAcCyz3+mi+OtCFoV4N/9NAJrF0APRtsmAANwO4fAAKxYhSVTBn2yu6LvbI6AaUayakCqcyMKwACcdUwALArw2V+SSV5SCQMwAps0IBlUYQEwALdzCAzAivMj04ck+FC++AX4b38ModYLse6KqbHUfBMEwACcdSwALArwO+Xfc10EbQtw6wKr+ttV360BGIAzjg6ARf2xfD3hrQjaGOC2m5HuprsIAAMwAFd4zQnA3xiSh1+Lt+QfYgGsKfA/Wi7AulSt/ANgAM47rgAsOleiYeqtC6kLBnC7zUhmDUgADMAAXO81JwA7maAIRdD2ALf6bUJVf18KAAMwAKtsqgCsmWsSZdC94Zm0PcCNNiOZZwUAAzAAV1hJANaswpoE8mZU/v++AG7z24R381doAAzAAFzhKQuANauwJPqQLO8HHADcYjOSpr9/UigIwAAMwBU2eQDWjNPFV+5fIgLc3rcJNf39s7o8AAZgAK5wsAfA3xqiW0/sImgfALfWDvzwcIAFwAAMwBU2eQBWTbZud9qcrCLFD8BtNSO9efAXgAEYgGts8gCsGjEXT2kzRwW4JYGtG4ABGIABWCiLAHjLcfko+Iv7y6BH7b/vEeCG2oGd5AMAAzAAV9jkAfibo79ZmuepCNoPwM00I2mmw1wAGIABWHWTB2DVU9fdn2M4mOa8G4BbaUa6K2bDUgAYgAG4biIB8GqA31mtTe2L6QID3EYzkqq/HQADMAALDAAWBVg0ZPaWQQtuhBtuBhwB3EIz0kMzGboCwAAMwMprCcC6VVgXP1kzxwY4/7cJ3xxtGgAMwAD85BgAWBTg3mhtKl/LNTjA2ZuR3jztGQAMwAD85JgAWJSgk9HaVH4aH6IDnLsZyfwLhAAMwABc+9EGgHXnaGcZtG0RtDeAU3+b8K6YCHMBYAAGYKGxALAowAejtXFXBO0N4MzNSL78BWAABuCnBwDLviowWpu6y7XlVsAbwHkF1vT3mUgAYAAG4ArPNgCsXIW1L9FOutniHuCszUgPb9sFAAMwAFdYTABWDtV9ZdC9/p/3DXBOgR/udgsABmAArrDJA7DyJO0rgx5t7wQcApyxGenN32YBwAAMwBU2eQBWDpp9n2MwzniPAOcT2FcDEgADMABX2+QBWNm9xUvilywAp2tG8pgCAAzAAFxhkwdg7SqswEXQPgHOJvBdMQOersQDYAAG4AqbPABrx2q3I2dOBluvf4BzNSNp+rsUAAZgAAZg5wAfnWSaYM5MiQDOJPBD098OgAEYgC1XE4C1E25PGfQodxlDJoDzNCNp+rvmZQwAAzAAV9hdAVi7CmtPGbR1wrsFOMu3CT19gRCAARiAaz9lAbD2o+eOzzFIBm/JBXCOZiSHDcAADMAADMDGAAsG6+Ii75dsAKf4NqFm8L8UAAbgJgBevnz68fOXLy5lAWD1/Wd7GfTJ4q9HAThBM5Jm7M8FgAE4P8DLj++//vaHT+6yC4DVM+7iIWWmdADHL4W++/UXgAE4IsCf//C082HU+N0FgIUfA63O3n4zeuuLcA1wdIE1/V19AgHAABwO4M//92XjOw2CAVgYYMFFmzanjOBFdAkB1ry812YakAAYgEMCvPzplH5wlGAArB6tm8ugzYugvQMcuR3YbQMSAANwRID/6mIOo5sMA2D1DWhxkPZLToDjNiP5bUACYAAOCPA3ivw/eUkxANZPua0ZczT556EADtuMpBn2LwWAATg3wD986zq+B+BQAEvGTbcxYwQ3wSkrwEGbkZxGPQADcEiAn5jNugJPACy8FQmeGmwtg+7NL8E/wKoCN9GABMAAHA3gpybzexe0aAF8eP/XQy4aXt4/PTob/baWQQveA3RpAY7YjKTp78bTfwAG4DAAv6hv6dtvc49OgujkPZIFd6Ctn2OwP4aOAHC8ZqSHpr8dAANwboCf3l9HAI4D8NFgcaqF7pwZ4GjNSM4bkAAYgEMBPFvsqJtfNAGwwWKZ3wJcUwMc69uEIfwFYAAOAvCadzzHepcBwNJDcJ466z1wyg1wpHZg7w3AAAzAoQC+2M4BANeK5N56ns72CxUF4EDNSJr+XgsAA3BugNfFeL2r6QDYbxXWYH0H0CUHOI7Ad0V/5wLAAJwb4LVF/tVeQl8A2G8V1rYnEfND6EAAR2lGiuIvAANwCIBXT+MIwEEAti5CdlAEHQjgGAI/FP1dCgADcHKAZw9LueotJwAbPIEuxkl/bQDgCM1Imv5uPnYAYAAOA/CGIO8BOAjAgitl/Ap8agFg/wLHaEACYACOAvDVx1qu2WMB2CJgL/F+Ph7A3puRgjQgATAARwHY+sEKgGtG8tF2OxSMk64NgJ0LrOnvSwFgAM4O8ORlMVc8jAOwxUJtiZTR9gg6IsCum5Huiv5eCwADcHaAt+5rIwCHALjoRqqvXw8JsOdvE2r6OxcABuD0AG+9zTxa5hwAB3kG9VAEHQ5gv81Imv4uBYABOD/ADp6sALhmJJ8tY8X4BDoowF6/TahZgLX1C4QADMCRAL46monn73oB2MTAznIHvDQEsM9mJNUCaAl/ARiAvQPceVpOAPaddusfQnsPkRoQYI/fJozUAAzAABwC4D2FDmOF6wFgz1VYU6wD6MgAO2xG0vR3KAAMwA0AfHEW3QDsuQrraoj/3BjAxVsz0l3R32sBYABuAOBdlYYHAA4B8NkOwYOLPTkmwM7agTX9nQsAA3ALAE+75qLCO+gOgMWH4C5kWAA2tAawr2YkTX+XAsAA3ATAnbfwBmDXedfZRcilOYA9CfzQ9LcDYABuAuDZ3YICsPw42E2VYLaU9gD204wUrwEJgAHYP8DDzskYrRYUgG2WaW3A9C5eS4YF2IvAARuQABiA/QPsbzIAuMKQY3BtJZSPlzVxAXbSjKTp71AAGIDbAHh3sf/RKv0A2OYqVzIoGLZTmwC7aEbS9PelADAANwLw7pvNAwBHiGS5xFvMMn5oFGAHzUh3RX+vBYABuBWAPZ0uAnCIKiyzNySXRgG2/zahpr9zAWAAbgXg2eFsALDvKqyLVXiUVgG2bkZ6KPq7FAAG4GYAFih3OAJwhEjujWKm97E1xwbY9tuEURuQABiAvQMsEO7i1zUBsOsqrHW1UHJP3teGAbZsRgrbgATAAOwcYJH3PSMAB4jkoxGENyP4kwFs14wU3F8ABmC/AE8S09EDcIBIlgufxSjhh6YBNhP4rujvUAAYgBsC+OIxwgG4yrAphhJcpa5tgI2akTT9vRYABuCWAHb2chOAK47eRMKTk2CND7CNwJr+zgWAAbglgGUiXvrCrgDsO2ovJr+6tA6wRTPSQ9HfpQAwADcF8CQzHzwBR4jko0nYjE7eT2YAWF9gVX87AAbgtgAWmrpe9qp4Aq7zBtOEQi93iykA1m5Git0ADMAA7Bxgn/MBwHWGxcmFYNAOAKwscPQGJAAGYNcASxU9HAE4QiSLvahYTPK9A+Ci24yk6e9QABiAGwP46nNRAdh72HYWu18B4H8PxUfgux5dLwWAAbg1gKXuOg8AHCGSjwYXelZNkRYAPmQE+FoAGICbA1is7AGAI0SyXO49f+fWe9mj0wCsKLAawHMBYABuDmC5vrsRgCNEstiFTga3ZhMA/28PzQbwUgAYgNsDWO6+swfgCJE8qkfOwU2aJwJY7b9oAdwBMAA3CPDkdEIA2HvcLgbp3gHwL+NjKoArhz0AA7BPgAenMQ7A7reiZ39RcI0KAH8dPyUCeCgADMAtAiz35ucIwBEi+Z36lZ5VM6QdgHUEvmfwF4AB2CnAXlcVgGsN9V2z1w6KVgAuWQC+FgAG4CYBFqz9PwBwiEgWq8KatH9wd8FCNoAPOQCeCwADcJsAS957AnCISD5rx46fLM8GsEYzUn2AlwLAANwowBMAtwbwSXnj9FMEnQ9ghX9UHeBaXyAEYAD2D7Bk9cMIwBEiWS77tJdoKQD8+/ExPMAa/gIwAPsEWDL6ewCOEMkH5eD5J3v3kuQ4bgQAFJLqAFxo9lqo9+wIHYAi6wBe1P3P4ghvbIfbPapWJj7kwwFmwMwEHn6q/qg6QI4GcLrA2QDXmbkBDOAuAS4APhrAcScVt8oD5QngX7QfQwM8FwAD+LAAb91GBMBpLWyhtNT1/v3JepcAl5EB/lkADODjArx2W+QA7n8yei1HHQ3yfQJ8GhfgtQAYwAcG+Ang4wF8qTp9BlbsBOBfz6ejAlzNXwADuEuAFwAfD+CwGtrqDvb370t2CnCqwIkAbwXAAD40wKFPIC4AHqOSw25lp6qRWQH8/9pfQwI8ARjAxwb4BuADAnyv2ddr7ZI4IsCJAucBXHPOBjCAewR46jatAB5gNpprah9wXLNfgPN+jJQG8FwADOCDA1wAfECAw4L2yhOCR0eR2THAaQJnAfyzABjABwd4A/ARAT5VrNjAgi0A/l2gxwL4WQAM4KMDvPY5rwM4uVVcwPX0CHrXAGcJnAPwWgAMYAAD+JAAh93L1kzQCuC/mVbHAXgrAAYwgJ8APiTAYbU7VQzMAuAWAmcAXOVfIAQwgHsHeAHwIQEOi9pcb7Md8Wp25wCn/BgpA+Dq/gIYwPsHuAB4kEo+1yugR0+B2TvAGQJ/7WGyBjCAewR4BvAhAS71shSXnQLgv28/BgB4LgAGMIDjowbgUSr5Uatk4+p1A/ArrX+AfxYAAxjAAD4wwGHFWy8/TwC/9BCjd4DXAmAAAzjjMQSAR6nkS60KiovLAuDXJte+AW7jL4ABDGAAd1PJ51q9jRslM4CbCBwL8FYADGAAx71rAfCIAIel6u/2pY+wuEwAbvKVsQBPAAYwgAF8dIAfldLUV60eA+DYHyN9jT1NAxjA3QK8AfioAF/r1Gxfj6CPAnDoj5EiAZ4LgAEMYAAfHuCPOiV0rl0PAP5X6xPgnwXAAAbwt/6HAN4lwGFDcKoUlgXA32inHgF+FgADGMAABnBcHd0qDZIZwG0E/up1tgEwgAEM4DEBDnuF9XsY72FhmQD8vTm2N4C3AmAAAzjzTAjA41RyVPkuVZgPerB/IIDDvjUI4Pr/AiGAAQxgAHdayR9V8tTZYc2RAI76MdLXqBM0gAEMYAB3WslRY3CrM9CfAG4k8Nce/AUwgAEM4I4qOayQ6mRnAfD3249uAJ4LgAEMYAADOPp6dhooKgcD+NQLwM8CYAADOGdbAeAhAb5X6G/cGJkA3EjgrzoTG4ABbAcM4OMAHNXjpcIuO+qvlh8N4IgfI33twV8AA9gOGMA9VfKlQqKqDg0Apwj8NsBbATCAAQxgAGdU0lqjWJ8A/sP2V3OAJwADGMAABnBKtrYa43wBcCuBv4abmQEMYAADuPdKjnqFVSM5NwD/cfvRFOC5ABjAAAYwgJMKeKoQlAnArQR+D+CfBcAABjCAAZwVujl9jx32jueYAJ/aAfwsAAYwgAEM4LRS+v9V9Kg5MgCc89lfHeQNwAAGMID3BXBJz1TtYgBwwiH0GwBvBcAABjCAAZx4Qrzm1+oM4Pcm3DYATwAGMIABDODMCt7yh/kNwM22wF/Nl00ABjCAAbw7gKNil5+bCcDNtsBf4QszAAMYwAA+PMDn5B6HjZCwqfywAJcGAM8ABjCAAQzg5HzNuXfMgY9pjwvwX9UB7moDDGAAAxjAnVXyI7eMHpVrAcAZZ9BfnUwuAAYwgAG8J4CvuakKC8kM4HZn0H8K8ARgAAMYwADO7vSaXao3AL/dflQGuK8TaAADGMAA7qySg8bhlj3KC4DbXQJ/9TG3ABjAAAbwrgAuqUCGpWYDcMNP/0OAZwADGMAABvBvWtAzqSk3JCuAA+bcygAXAAMYwAAGcH4N/3q3c++vTAFcC+ANwAAGMIABXKHXS+b2OvI088AAn+oC/AQwgAEMYABXGIjP3Gq4ATig1QV4ATCAAQxgAFeopjW3UguAhwN4BjCAAQxgAP+2xRwTb6mDfAMwgAEMYAADeG8ABz2USs3ME8DjATwBGMAABjCAa3R7yozIAmAAAxjAAAbw3gC+5PU5bHzMAB4P4AJgAAMYwACuUU5z3ul26GYKwAAGMIABDOBOKvmRlqywgBQAAxjAAAYwgHcH8L17gDcAAxjAAAYwgPcH8EcWkufKhQBgAAO47s0TgAEM4PdaUPwSE7MAGMAAtgMGMID3B3BQPU15AZkBDGAA2wEDGMD7A7hkdTpseEwABjCA7YABDOAdAhzzCmtO+u8GT+UABjCA7YABDOBeKvmaVEmPioMCwAAG8NF2wHcAA3h8gC9J2apcBwAGMIDtgAEM4LEq+ZxTuqcuaxTAAAbwTgC2AwbwDgCOSdqWdsh1AzCAAQxgAAN4lwDH1HFaXiYAAxjAAK4A8BPAAK5eydcUJ8PiUQAMYAADGMAA3iXAl5ReR72QWAEMYAD3D/Bc/SMeAAbwDgA+p4y/e90yADCAAQxgAAN4uLOclFJ6dFmiAAYwgINnagADGMCtC3lNKtMbgAEMYADX+AYAA7gBwCHXtVtSmU4ABjCAAVzjGxYAA7g+wDFdz0nLVgAMYADvAy8AAxjA/9NiXmFNKeFYAQxgAAM4WUIAA7gZwKeEbl/rVgGAAQzgb7QHgAEM4D4AjhmN/30HdO/zZgnAAAZwafWCuMODOwADuDnA1/haevQZDAADGMAAfmO5D2AAdzk5PVMqYQIwgAEM4OSZH8AAbgdwyFpyzajS4EfQAAYwgCOviNKeSwIYwIcB+BRu5bnTUQ1gAAN4HwB/ABjA+wA45kAqIytPAAMYwCMAvO0gozcAA7gFwCHDcUqIxgxgAAMYwL9oVwADeCcAf0T3+9ppLAAMYADn6DX+GgLAAG4DcEgQ54TBUQAMYAADuA7AE4AB3ALgU3QxPWJCsQEYwAAeA+Cp8ic8AAzgnQBcohMWFIoVwAAG8BjhuA04ZwEYwF0AfI/V8tRpfQIYwAAG8DtFC2AA93ki9R/nxVE/A54BDGAAjxGOue4XnAAM4N0AfIkt30uvoQAwgAFcUv6M1FL3C84ABvBuAA6pqik8GAXAAAbwGAA/h/+CDcAAbgNwie34teKAADCAAdzB/vE5fEIBDOBWAEe8wppD/2spQxrAAAZwDsCV/xj0tdEXABjAnZbzv6vp0eutEoABDOCS8oSp8t+ivAMYwPsB+BKasaBIzAAGMIAHAbhyyh/xH/AEMIAbARxxJLVG1+gEYAADeBSAp6pf8AlgAO8H4IjUbdEXTAXAAAbwKH5VnbgyVhALgAHcCuBHIJhBOdkADGAADwPwXLP/ZwADeE8AR7zCmmJj8QQwgAE8zBXqUrP/l1YrCAADuNcJ6haIec6ABjCAAZwEcNUfAl8BDOA9AXwOLOB7t0daAAYwgAPH6C8fYQ7a/9dmXgADuNdLoSV2dT0BGMAAHgawqj8EfgAYwLsC+BGXsqBAFAADGMDjHOFOFfv/2ar/AAZwryNyDS3RFcAABvBA8ag4c50BDOB9ARzwAVvo4HgCGMAAHigec73uZzyCfq1mAQzgbteUoSlZAAxgAA8k2FKv+xkn6BuAAdwO4IjCmiJDcQMwgAE8EMAVn0HfAQzgfQEc8QrrFrk6nQAMYAAPdIla8Rn0Z7P1A4AB3O2ico4EuAAYwADu+MCrypq5Xu+fAAZwQ4A/ogB+hIRhBTCAATwUYdWmrguAAbw3gC9R9fSomX8AAxjAnRziLrU6f23XewADuNs18RpYBQuAAQzgtPZI+PJqfw064w3Wi7+iAjCAux2Sa2CF3gAMYAAPBXC1V1ifAAbw7gC+xwzAoPeVE4ABDOCxNpFTnb6n/B2sFydeAAO43zkqLiM5i2kAAxjAedeot5GTOQEYwC0BvsTUcEwkVgADGMCDAbzU6XvK7v3FkgUwgJPaKabv15rpBzCAAdxNQCr9LaxPAAN4fwAHpG8OW57OAAYwgLs+72qV9pwr4A3AAG4L8D2koB4dRwHAAAZwomK3cXO5AhjAbQG+hiSt5osIAAMYwK0unFpdAudcAT8BDOC2AL8fyzWqQJN+UQhgAAM4EeAql8CfLdcOAAZwv6dSW9TR1gpgAAN4PMaGvb0GMIBbA1wixt+lZvYBDGAA/1l7pHz8PMJN2Ts9BzCAO75cmYICMQMYwADe7U1qfyuHV+ddAAO447XlLWh9egMwgAE83kYy/89Bn5PSNgEYwI0Bfj+Yc9DCugAYwAAeMCK3UTNZAAzgxgCfAyoq5IBoAzCAATxiRJbsfiedQG8ABnBrgN9P4PMUMj5WAAMYwJ0fdzU5g846gV4BDODmAD8++2gLgAEM4D3fpfZ1df366zEAA3i86v7+VTKAAQzgzHYabPGcvEdYAAzg5gB/dALwDcAABnDn900tzqCz9u0vr/kBDOABy7uT6RvAAAZw8l4ydQJLO6O7ARjAzQE+9eHvBmAAAzi53RvfpvY1QU0ABnBzgDt5hfUEMIABnNzSNpOJfb58tu40gAE84qDs4x0HgAEM4OyQzHl9TtsgbAAGcAcA9/EKawYwgAGc3NJ2k3n/JmHeG5UVwADuAOA+XmFNAAYwgIcd62lTWN4B3RPAAO4A4D5eYRUAAxjA2W24NxyJs9MCYACn36C0vGTJuI8BMIAB3OFYTzrCSnyhcgMwgHsA+N4BwE8AAxjAA4/1nBGceTw3ARjAPQDcwyusBcAABnB6u3bgWSf9/SwABnAPAF86AHgGMIABPHJMMrbAmRvgDcAATt//ta7yxjdIAAYwgCstthPGcOYGeAUwgLsAuHQAcAEwgAGc3jJ/cxi/BU7dGiwABnD6E6SXWvtXWCuAAQzgwRfbt6EmphnAAO4D4GtzgJ8ABjCAK7THQMvo3D8RdAMwgPM3gK0vhpqfwQMYwADubVPZfLHwnStrAO8d4K3toGz/Cuu2C4D/AWAAd95ST7u26Z/s3V1y27gSBWBQFN9pS35nEvqdtrkA/WQBtqq8/61Mbt1UzSSxY4sEDrpPH2xAokT0B6C7yZxfdVf0LzsnASyAbQBcvwqrZwDY3AZYAAtg7GlXzlRS4W3BSQALYCuxq3oVViIA+JIEsAC2Pgq/emVyE5SOAlgAI3aA1c+lKufAu7j+Bgd4I4Dh+8p8h9C772aWCgKYHuCh7qysXYV1JAC4F8Cxjlt9Alz61Su51tLFV0+DABbAJU5ujO8VIDdlBYAt+hsd4OK7KI8Ajy4W081c+i/rBbAAhgiE/heNHQBgAB6SADb4A+wFMPwnybKZKF6Vck3dqwCmB7hyI3DtVwL33gG26a8ARpUXOgK49bCcLr9wOglgAbxsPeZ5p1Dh6hEAvyQBbBNg0NLSEcAbB+tpQOrgIIAFsJ3gta0K8Mk5wFb9FcCoh8w4AhiQblpbCo1I3U8CWACDsqA2lsXF6zaqAXxJAtgswBiBPQE8WxcYEox6ASyAVYWVsWyjHsBJABsGGBLPPQGMSDetEfgWEnOSABbAqsICbP+LA9wLYNMAI040PQG8tT2nMa1jJwEsgC1Fr6pVWL1ngIckgG0DDLi5PQEMSjc9WPb3OgYFcACAK8fxmlVYZUvAu7j+CuCfYxTA4KT4j/Fo8p9akvUSwAEArpwErlmFdXIM8HMSwPYBLp5h8QQwLN10fSJ4A8uE9QJYAAO3gWaWxfi1R1GAX5IA9gBw6ScbugJ4hM3sKzfBO1zMSQJYAJs6g65YhTW5BfiSBLALgEsvMF0BDEw3nb98/mvdAkPQSQAL4GUX739ZDF56lAQ4CWAnABfOsbgCGJpu+izBzTe7h24COALAleNXxSqs5BXgXgC7AbjsM5BdAQxON32GYCy/1x66CeAQAE+88alm9ruLWQAtgJEZRlcA49NNjzdmDp8X1GAJ4BgA1y3DqleFdXIKsH1/BTAqy+IL4H2FVfbjl7fRa26fzK/5BXAIgLP/NcaXxaDL7mIWQAtgpMC+AK6Ubjo/fb25+Q/Dzc3Xb3WizlEAC+DVByN+9gdVj967uP4K4N8C6SyA/zfqvnrlfH56eprnml9hEsACGH8Ya3JZXLz/qgvZgCSAoQL7Arjuq1cMjEEAMwCcv27poeKkrFaFlRwC7MNfAYza+zkDeAwOcBLA2gHX2A3C7rJyBRE2AO4FsEuASwnsDOBtbH9PAlg74HfGl3qzstJsODoE2Im/AvjPsRPAtZPA1cdBAAtge6fQo4/ZYADgIQlgrwCX6cFxBnATG+BBAAvg989HeqbI9PGY3AH8qPXy7wAAIABJREFUnASwX4CLLDSdAVzzye/+UsACOBTA378/1iG4UhVW7w3glySAPQNcQh9vAO8j+3sSwAL4A4JrpIIrJYaSM4AvSQD7BrhAM5I3gNvIAB8EMAfARcV6evx6c3PT/DEKzsoqs+HsDGBP/gpg1MT1BnDoJPAggAVw6d/ISnKs5vUUAbgXwO4Bzj9zvQEcOgmcBLAAtghWlcTQwRfArvwVwO+NXXSAAyeBTwKYBOCGDOAqiaHJFcBDEsAMAOcGyB3AgZPAkwAWwCYBrrKj7z0B/JwEMAfAmfMt7gAO/DjoQQALYJs5UxcJmYoAvyQBzAJw3iyoP4DHqP6ekwAWwDYBrlCZcXIE8CUJYB6AszYj+QN4GxXgowBmATixAbznupzMAPvzVwCjMi7+AA77OOhJAAtgo2JVqMw4+AG4F8BUAOc0yB/AYZPAvQCmAXgmA7jCqnhwA7BDfwXw38cuMsBBk8BLcl4CWABjzmxdrEfrADwkAcwGcD6BHQIctBHpIIAFsFmA8ReUnADs0l8BjNoGOgQ46NMoewHMA/DIBjC8CuvkBOCXJIAZAc41hR0CHPNplOckgAWwWYBbqqvJB7BTfwXwx7F1DgvwNiLARwFMBPCeDWB4FdbBBcCXJIBJAc4UXD0CHLIRaRDARABv2QBOLuYDHOAkgGkBzuOQR4BDnkEnASyADQOMPlTvPQDcC2BigLOEE5cA7+P5exTATAC3dACD5+Q5OQB4SAKYGeAczUguAQ7YiDQJYAFsGWDwFZ0cAOzYXwGMOvdxCXDAh2ElAcwE8IYO4A3TxWQB+CUJYHaA1wvsE+BwZ9BHAUwFcEMHMHhRPJkH2LW/AvizE3kOCXC4M+hJAAtg2wBjq7AG6wBfkgAOAPDqmewT4HAPw0oCmArgxAcw9lSqtw5wEsAhAF6be/EJcLQXMhwFMBnAMx3A0FMpRBH0KoB7ARwE4JU3vlOAg51BTwJYABsHGFqFdTIO8JAEcBSA1zUjOQU4WB10EsBkAI90AEOn5ME2wO79FcCoyewV4H0kf48CmA3gPR/AyE39ZBrglySAIwG8RmCvAIc6gx4EMBvAWz6A9x5mBAJgAn8F8HVxdg4HcKQz6OUVJwLYKsAtH8DINUUyDPAlCeBgAK8Q2C3Agc6gDwKYDuANH8DASzobBpjCXwGMuvndAhzonYS9AKYDuOEDGHhJJ8MA9wI4IMCLPXILcJx3Ep6SAKYDOPEBDJyRB7sAc/grgK8eu2gAb6MAPAlgAewB4L2HKVEY4CEJ4JgAL7z9/QIc5nGUSQATAjzyAYxbEg9WAX5OAjgqwMumtF+AozyO8iiAGQHe8wGMq+xORgF+SQI4LsCLcjCOAQ7SCtwLYEaAt3wAw86kzkYBviQBHBngJc1IjgGOUYZ1SgKYEeCWD+DEcyWLACbyVwAvGptYAO8jADwJYEqAN4QAo5JCB5sA9wI4OMALZrVngCOUYZ2TAKYEuCEEGLUinkwCzOSvAF44dpEAjlCGdRTAnAAnQoBRx+q9RYCHJIAF8NWLUNcAB3gaVi+ASQEe+QBGzcdkEOBnKn8FMGpeuwaYvwxrZdAUwHYB3vMBDNrVg4qgrwL4JXENAQxCyTfAW3aAVwZ5AWwX4C0hwDPLhVwL8CWRDQG8POjOcQBmfynh2ofOC2C7AG8IAcbs6g+g4NLF9VcAo2a2c4D33ABPApgW4IYQ4K2LWZEf4F4AC+BlAjsHmLsT6Wzq5xHAWQFOhABjyqBR3HVx/RXAq8YuDMDcW+DVS30BbBjgkQ9gzHoYFVu6kA1IAhgqsHeAmTuRzrYCogDOC/CeD2DIrv6Eii1dXH8FMGp17R1g5odxrM91CWDDALeEAI8k13EFwC+JcQhg0ExwDzDvFjhDu6MANgxwQwgwYld/QIWWLq6/Anh16J2DAMy7BZ4y3AUC2C7AiRDgLeA6YEe+XcgGJAGcSeAoALNugc+4m0AAV4Fg5AMYMRl7SwCT+iuAUXPBP8Csz6PMsAEWwKYB3vMBjDhWhwWWLmQDkgDONdogAHNugc/m4qEAzgxwywcw4FgdVgT9CYCHxDoEcIaxiwEwZxY4xwZYAJsGuCEEeOS4jM8B/EzrrwBGzQYGgBm3wHne+CKALQMMTp5A5Cp/rH6AxZUuZgG0AEYKzAAw4xY4ywZYANsGeM8H8Lb4ZeCOfbu4/grgPOPjZiQKgPm2wJkSXQLYNMAtH8Dlp2JvBOBLYh4CGBSBKQDmeyL0APr7BXDN/6jhA7j4JZ1xUaUz0IDUVCr0EsCgFSkHwGwvRTpa/F0EcPZF0kwHcPEyaFwR9N8BxmzEm/tKrU4CONdoIwDMtgXONecEsG2A93wAzxRX8SHAoH3pfa1m4wgA32A+ZhcB4GZm8vfB5MmAAM4OcMsHcOk1xWQCYKS/VbLNAQDeoe6lMQDA8FfL+EhzCWDbADd8AG99VEesAxhUAH1Xr96LH+AWt5obAwDM9EDKfDFGANsGGNpAd4TFNQ/ZmTUAg/y9rdjxRA/wBric+9v5LA3APK1IGctMBLBxgLd0ABeeh8Ai6HcBBm1IN//5yC8COLOJP28nzHruLwLTAMxTh9Vnv80EsFWAGzqAC18RsAj6XYBBRFR96jQ7wDN2QbcJADBLHdZkNRoK4AKZgpkN4MJ9SAdgROmqNiDVfe8DOcAjekW34QeYpA4r6w0hgK0DvKUDuGxaewIGlK7mGwjv6775kBvgET8tdvwAczwSOus8E8DWAd7QAVw2FYTcCHbVG5B+yTxDBaYG+FcMH6rOCyaAGZ6H9WD3FxHAJSyY2QAuu6dHxpOu3hsI72o/fJoZ4LbOom6kB5jgEDpzRkIAmwd4zwZw0UmILIJ+C2B4A1Kt1y8RA7ypdawy0wPs/xA68zGTADYPcMMGcNFDdWQR9BsAV2hAqiQwL8BvTLiazUhcAHs/hJ4s/x4CuMi6eSYDuOgcPCCjSWeiAalOKTQtwG8qWLEZiQtg54fQJ9PBUAAXAbglA7hoH9KEDCadjQakKgLTAjzXPFnZ0APs+hA6/0mIALYPcMMGcMkt/YCMJZ2RBqQazUisAI91J8eOHmDPj+PIH10EsH2AYWVYx8oxLseAxpLOSANSDYFJAX5/rtVqRmID2PEzoQvcAgLYAcAbMoALLiigRdC/AfyM+dC7D4QD1YFxAtzWz26M7AB/8P7jQAlgAewDYFQZFgrgrf9LeAPgqg1I+C9CCXBrIb0xswPsNA1cpBReAHsAuOUCuODlHKCBpLPTgAQXmBHgj46aMKf7vyVJCQH2mQYusv4SwB4ABt2wKIALHqlP0EDSmfQX825CQoA/nGZVmpEIAXaZBi4TWgSwB4BBZVgEAPfQONJZakACl4MRAvzxMreGwIwAO+wGLhQcBbALgBMVwAX7qrBhpDPVgIQtheYDeLQzRXbsALsrxDp5iIUCuBjAeyaAyy0nsEXQ/wI8YD7v/vPOFReYDuDPTbEHuE+cADsrxCoWWASwD4ATFcCz+yv4FeBnzMfdXeFc8Zw0G8Cf3ZJNaJ9IAQa+5c1oAbQA9gTwngngYqvfAzaGdNAGpLuroCstMBnAbZVZ/RmfWAH2VApd7jxJADsBOAlgc0XQPwEG+bu5UrrCX4sL4I2JaPymT6wAO3ox0uDkRxDABf+3lgjgYtv5HhtCOnMNSLhmJCqArwqDqHcTsgPsphlpsHLnCeCaf9zMA/CWowj6/wCDtgsLrCt6WEoF8HVzC/tmJF6AnQhcdBoJYDcAtwLYSGT8BWDQduj+1ZjATADPNu+zlh1gFwKXTWsJYDcAly/chwHcer+AfwEeMJ90v0y7gqsDIoCvn1jIZiRmgNNt7P2vAPYEcCOAbRVB/wD4GfNBdwu1u5QTmAfgJRUJE+Z/H9kBNi9w6QW2APYDcPGnx8AA3jidLX8AbLIBCdOMRANwa/lW+yHw4Z4ZYOMCF/+bBbAjgEvXYbkHuAcHjwb0c70uH8WWCCwAb0zfa838/dAk6rGJ7K8AdgVwQwJwqesgjVCvrwYFJgF48a0Ia0Y6JPJhVmDEXyyAPQFcuBLaO8AnyvjUvK4bhVbxHACveBwT6s1I9ACnzRzWXwHsC+CyldC4ImKOImiMv/evJgXmAHjWes/CPW5R4BPkiEMA+wK4aBrYO8CUe4XV/hZqRqIAeNSCz4bAozl/Hx0eBgrg8gA3AthMETRi3L1mGAL47bFfecNNojPX+GbM33/Yu5vlRI4sAKNdpe49omEPEuyxpAdQmHoBOybf/1XGHnsium31j6Cy8t7knIiJmKVdhvzIJK9YaNJbgLMFuOaVhewBXvW3Ls3S3yrDSB0E+PqxPgWeTahxpPNin+UFOFuAK04DLxfgKgfp5/5WpbHMo8JV6PwBHn3mC/Vaj/NF8K/L/WcV4HQBrlfg5AHu71LMXP2tUeD0AZ7lKOm8+sBcLYryRfAvS/5LC3C6AFf7viR5gLu7EzOU+cz+24TZAzzTynf+QILDvZDHzwKcNMC1Cpw8wL19ITdnf+cfRsoe4LlegoaR5nzJtz+Gflr2TEOAMwa4UoGTB3jX2Wp0nDXAcw8jJQ/wIeG75hY0vg193i/87yvAKQNc57Am+S3ozr6Om7m/cxc4d4A3Sb8ytAnuafsrwGkDXOXWfu4Ad/Zt3Hbu/s48jJQ6wPN+ft19IPrmIt63vwKcOsA1bu3nDnBfX8atS4ld4MwBnvtPqivwvFFqcg59bnKSIcBZA1zh1n7uAL/2tAaNpYY5h5ESB3j2v2VjGGnuj5/Ln0M/tflvKMBpAzz/WU3uAJ962gOUOma8YpI3wBX+mqthpOQJbpRfAU4d4LkvLOT+OcKOzgFr9XfOYaS8Aa6xtBtGmv098PkG8ivA/zqdep7RAklYC3Cti7INHUv8AqcNcJ2tlWGk+T2+9J5fAc7/QfEx4euwxg9KdHQKWLG/8w0jZQ3wodIybhipwuK2wEF00/wKsAT/5XnRAfS7Cm+kfg4BtzX7W36facFJGuBNtZX8JJg1jviqJvi8X7X+F3ya0dwvwccZ7Tt+kd4/XlvfhV+GNQL82s2SU+qaaRgpZ4DvKq7muw+EPuNru+ug6xfpS5r6/uGjDci3j+dLbfMMI6UM8FhzO+W3Cat9Jn3ucvNLVy/SCz4onp/afAbc2H9886NUKTkKnDHAQ9X+Gkaq+LZ4mPUo+vygvlRo8Mu74tvsRVjjIoz+LnsVOmGAq/+ZYcNINd8ac+2Dn9WXWu5/JsLn54f7pq/BF7uPbziWLAVOGOD6V2oNI1Vu8LWTSa3O/LixCj+/+UJ9eX562N+3/we09LXt7xzDSPkCfJjqM4y0QISfL935tt12cGNW9/f3+/3+4Y//7f/4v0Oc95BL0G/blpKmwOkCvJmWcLLuLLTFeE96nx/22gt/ubPwte7v9cNI2QK81F823Hl/L5bh+4eH5+eX74X36cG2F75WYwqpg3fZWEqiAicL8N20FOt9k7O++/v1n+7/Nngq8DaXoN8ylGVdOYyUK8DjYv3124RAZC5BB+jvtb9NmCrAw7Qgw0hA3NS4BP3GQzkuHuDrhpFSBfhlUmAAfwn6TQ36e91V6EwBPkzLMowEBOUPUf7btpRkBU4U4M20tJN3ORBSjfPAVe5H0qi/11yFzhPgz9Pydt7mQEBVLqQmfySlpCtwmgDfTS2svNGBeGpMAee+9tKuv1cMI2UJ8Nikv4aRgIhqnECnvgQ9lJKwwEkCPEyN+G1CIN52r8Zq95q5v8emAb50GClHgKv/AqFhJCCPKldSd4kfSOP+XlrgHAE+TO34bUIg2H7PlZevbUtzFz29FAFu2V/DSEAwH33fFq2/5fdLCpwhwJuprZ33OxCIr9u+MpYILhlGShDgu6m1lTc8EEadPcmr/i5+FTp+gMfm/TWMBMQx+LLtq8dRStoChw/wMAVgGAmI4uCkL2R/L7gKHT3ADQeQDCMB8dQ6FEz6OI4lcYGjBzhGfw0jAUF2fC92GV/YllDeeYwQPMCHKYqTNz7Q3sEmI25/31vg2AHeTJMCA1TflKRc4dbR+vvOYaTQAf48RbLz3gfa2ljgvjCWkrvAkQN8F6q/hpGAXve/Ke9gDSWi9wwjBQ7wOAVjGAloGZyD5S18f0vZ9xDgYQrHMBLQzLrmUEjCO1jHoAF+xzBS3AC/xAuwYSSg1X7v0S3THP19x1XosAE+TBH9YhkAustvwjtY21LyFzhqgDdTTCcrAbBwfdfP1Ze2bM9kHbm/P30VOmiAP09R7awGwGLtvV8/LvF1XLY7WGMpPRQ4ZoDvprhW1gRgNpvzt7nf8q3PJSW6nxtGChngMXB/DSMBM4px3eWkvy0KHDHAwxSaYSRgvh2w79be7ZggwD81jBQwwEF+gdAwEnArO2D9bVLggAGO3l/DSEBfO+BU53rbksQqYYAPU3wnqwbQT4AzHet9ytLf8vsPCxwuwJspg51lA+gmwIn2FGPJ44fDSNECfDflsLJuAL0EOM+CNpRMfnQVOliAxyT9NYwE9BNg/W1T4FgBTtNfBQa6CXCaO1jDMVmAf/DbhKECHH4AyTgw0F+AX7M8rHT9/cEwUqgAZ+qvYSSgkwDvkjyrbUlolSTAhymXk7UDuNJHd7C67u93CxwowJspm53FA0i/A05yo2XM2d/vDSPFCfDnKZ+V1QPIvgPO8Wc4svb3ewUOE+C7hP2dzgoMZA/wKcNzGkpev0UP8DilZBgJyB7gDBuJfANIP1PgIAEepqQMIwG5A5xiH5G6v98cRgoS4JesAfbbhEDuAGfYRmxLcqvAAT5MeZ2sIEDiAL/qb6sChwjwZspsZwkB8gY4/hI25u/v279NGCHAn6fcVtYQIG2A9bfZMFKAAN8l769hJOBizRfA8F8BD6UPv0UM8DilZxgJyLoDfo3e32PptsDNAzxMHTCMBCTdAe+CP6Bu+vvGMFLrAKf6BULDSEBvAQ7+fLaldFvgoXWA++ivYSQgZ4CDn9911d9/DiN9ahzgwzQpMCDAvgJ+y7qv/v5jGGm7bIBX/3i4m6kfOysJkC7AoVeusfTmq2GksmyAd8G+/DCMBNx2gCM/m6GUngv8aeEAf31OO05dMYwEZAtw5K+Ae+zvl8NIx5YB7qy/hpGAdAF+jfxsjl0WeH/1BvjCAH/537qTASTDSEDeAO8cQTcaRrrm++3/XL1H7K+/0/SL1QR4l7ZHgcG/Odv2WeDVlf29MMBffN9/mHp0spwAeQIc/Nhu3WeAy8P6utP1/1wZqE2X/fXDSECmAEffM3S6Bb7WhQH+/xn05z77u7OaAIkCHH7PoMAzBvjvRN312V8H0ECmACcYnjzK7XwBPrf/yOcKFiDAWSY3FHi+AE/n/fDYZ38NIQG5ArxL8IAGvZ0vwN3yZziAZAFO8YQUWIA7+C4FEOCEx3aj4grw9/u7spAAF+zv3Bv9obXkCrABYKCnHXCadcswkgAbAAY62gEnuriiwAJsABjoJ8CviR6TYSQBNgAMdBPgTCd3rkILsAEkoJcA5xrdUGAB1l+gkwAn+9tBhpEE2AAw0EeAd8melAILsAEkoIcA59s7uAotwAaQgA4CnPCv1yuwABtAAvIHOOPmwTCSABtAAmbjBPodn1YUWIAzn+EAdsBpVy/DSAJsAAlIvgPe5XxaCizABpCA1AFOu3wZRhLg/72AV5YOIGeAX9M+L79NKMAGkIDEAU68fzCMJMD6C6QNcOoLLAp88wE+WTeArAFOvYAZRrr1ABtAAvIGeJX7mQmwASSAlAHOvoMYBFh/Aa714grL+40CbAAYIN8OuIMlbBTgW7WyZgB5d8CvHTy2rQAbQALIFuAu9hBbATaABJArwJ0McRwF+Pb4BUIgdYB7OcQ7CrABYIBEAe5mimMQYANIAIkCfOrm0Q0CbAAJIE2Ae1rFRgG+pf6urBZA6gC/9vTw1gJsABggSYD7enpbATYADHCZg3uk1zgKsAFggAw74O7O8Y4CbAAJIP4OuL91bBBgA0gA8QO86u8BDgJsAAkgeoC7PMgbBVh/AYIHeNXlIxwF2AASQOgA93qTZSvABpAAIge424e4FWADSABxA9zxSnYU4F75BUKglo2rLDMYjgJsABgg6A6466O8QYANAAPE3AF3vpQNAmwACSBkgFedP8hRgPvr78oCAeQPcP93WT4JsAEkgHABvoWzvK0A6y9AtADfxFp2FGADwACxAnwjwxxHATaABBApwLdymXQQYANIAJECvLqVpzkIsP4CxAnw6XYe5yjABoABfspHmwkFFuCbPbMBut4B39hmYivABpAAQuyAb20zsRVgA0gAAQJ8e5uJowDn5hcIgS4CfIOLWfe/Tdh5gA0AA10E+CY3E4MAG0ACaBvgG91MDAJsAAmgZYCfbvWpjgKctb8rawLQQYCfbvexbgXYADBAqwDf9GXSrQAbAAb4njv9reMowAaAAVrsgPe3/mSPAmwACWDxHbC7LB1fhe41wAaQgA4C/OTBdlzgTgNsAAnoIMB7z/VPowDrL8CCAf515bH+ZS3ABpAAlgrwf9m7oxQ5bigMo0jQ7+MGvRdj9F54luAt1P7X4kAgiWMP7u6q0i1J5yyh1OTDif/c7/74+68iwAZIAG0C/O6TDl/gEQO8+q0CfQf4m3+P9z9VgHvgAiHQdYC/v8vvrwTYABjg1AB/+G+/v5UE2AAY4DfyQfX1h99Pv7AAGyABnBHg79/Ud64CDxZg/9c2oMMAf3y8f/FPrz+6CbABEsAvAf542tev73/5Ir0PKwKsvwAEqAJsAAxAAAE2QAIgQBJgAyQAFFiA9RdgElmADYABCHATYBcIAQhQBNgACQAFnj3Aq18kwCyqALtACEB7SYANgAFQ4IkDbIAEMJcswAZIACjwpAF2gRBgPkWADYABUOAZA7z4FQLMqAqwATAAAQTYAAmAAEmADZAAUOCpAmyABDCzLMD6C0CAmwAbIAEQoAiwARIAAaoAGyABoMAzBNgFQgB6/qvQvQbYABiArgvcaYANgAH4WxZgAyQAAtwE2AVCAAIUATZAAkCBxw2w/gLwkyrABsAAtJcE2AAJAAUeMsAGSAD8KguwARIACjxcgA2QAPi9IsAuEAKgwGMFePH7AuAzVYANkAAIIMAuEAIQIAmwATAACjxIgA2AAfiTLMAGwAAEuAmwATAAAYoAGwADEKAKsAEwAArcd4BXvycAHpQE2AAJAAXuOMAGSAA8IwuwARIAAW4CbIAEQIAiwAZIAASoAmyABIAC9xfg1W8IgBckAXaBEAAF7izABsAAvCoLsAEwAArcUYANgAHYowiwATAACtxLgBe/HAD2qQKsvwAEEGADYAACJAE2QAIgQBZgAyQAFPjiATZAAuAoNwE2QAIgQBFgFwgBCFAF2AAJgAACbIAEQIAkwC4QAqDAlwywATAAx8sCbAAMQIAiwAbAACjwxQJsAAzAWaoAGyABMH2BN/0FYA5JgA2AAZi9wJsBEgCzyAJsgARAgJsAGyABEKAIsAESAAGqALtACMDEBd4MkACYigAbIAEQIAmwC4QABMgCbAAMQICbABsAAxCgCLABMABzFngzQAJgPlWAF78CAJpL0wdYfwGYssDBAV79BAAIkacOsAESAJMWeDNAAmBOZdoAGyABMG2BAwPsAiEAseqcAdZfAIJNGeDFuwMQLE0Y4NWzAxAuTxdgFwgBmLrAmwEwADMrUwXYABiAyQu8GQADMLc6TYANgAG4kmkCvHhrAC4kTRJg/QVAgTcDYACmlycIsAESANdThg+wARIACtw+wAZIAFxTHTrABkgAKHBAgPUXgKtKAwd48bwAKHDzAK8eF4ALy4MG2AVCAK7tNmSADZAAuLoyYID1F4Drq8MF2AAYAAUOCPCbNwWgA2mwAC+eFAAFbh5g/QWgF3mgAK+eE4Bu3IcJsAuEAPSkDBJgAyQA+lKHCLABEgAK3D7ALhAC0J00QID1FwAFbh/gxSMC0KHceYBXTwhAl+5dB9gFQgB6VToOsAEwAArcPsAGwAD0rHYaYANgALqW+gywATAAChwQ4MXDAdC53GGA9ReA/t26C/Dq0QAYQOkswAZIAChw+wAbIAEwitpRgA2QABhG6ifABkgAKHBAgPUXgJHkTgK8eCoAFLh5gFcPBcBgSgcBdoEQAAVuH2ADJABGVC8eYP0FYEipXjrABsAAjFrgSwf4zQMBMKh84QAvngcABW4eYP0FYGTlogFePQ0ACtw8wC4QAjC6esEAGyABMLwDx0ibARIAPFzgqwXYBUIAppAvFmD9BUCB2wd48SAATKJcKMCr5wBAgZsH2AVCAGZSLxJgA2AApnLIGGkzAAaAJwt8hQAbAAOgwAEBfvMMAEznHh7gxSMAMKESHODVEwCgwM0DrL8AzKoGBtgACQAFbh9gAyQAJpaiAmyABIACtw+wC4QATC6HBFh/AZhdCQjw4rMDoMDNA7z66ADw+l+F3lwgBICXvXwZaTNAAoAdBW4ZYP0FgH0F3gyAAWCP3CzAbz42APzj1ijAi08NAP9RmgRYfwHgZ7VBgFefGQB2F3hzgRAA9kpnB9gACQCOKPBmgAQA++UzA+wCIQB84n5igPUXAD5TTgvw4uMCwKfqSQFefVoAOKjAmwuEAHCMdEaADYAB4LgCbwbAAHCUfHSADYAB4AH3gwP85pMCwAPKoQFefFAAeEg9MMCrzwkAhxZ4018AOFI6KsAGSABwdIE3AyQAOFY+IsAGSADwpPv+ALtACABPK7sDrL8A8Ly6M8CLTwgAJxR4M0ACgOOlPQF2gRAAzinwZoAEAGfIrwZYfwFgh/trATYABoBdyksBfvPhAOCsAm8GSABwlvp0gPUXAHZLzwZ49c0A4MQCby4QAsB58jMBNkACgHMLvBkgAcCZyqMBdoEQAM4u8GYA/IO9O0ZBGIiiKEqyAhHSp5k+m7AXnP2vRSyCKEkkUCSNAAADmElEQVRM4X/VOUv4zW3mMQBQq50K8OxQAPBPw5kAL+4EAOUF7n4gBIBq468AGwADQIHrcYANgAGgxHQUYANgAMgUuBsgAUBC2w3w7DgAUGVoOwFe3AYACgu8HWADJAAoNW4F2AAJAHIF7gZIAJAyfQfYAAkAkgXufiAEgJz2EWD9BYCIdYzUDYABIFngd4AX1wCAlHENsAEwAKQL3A2QACDr9RS66y8A5Av8cAUASGu3uyMAQNx8cQMAAAAAAAAAAAAAAAAAAAAAAAAAAAAAAAAAAAAAAAAAAAAAAAAAAAAAAAAAAAAAAAAAAAAAAAAAAAAAAAAAAAAAAAAAAAAAAAAAAAAAAAAAAAAAAAAAAAAAAAAAAAAAAAAAAAAAAAAAAAAAAAAAAAAAAAAAAAAAAAAAAAAAAAAAAAAAAAAAAAAAAAAAAAAAAAAAAAAAAAAAAAAAAAAAAAAAAAAAAAAAAAAAAAAAAAAAAAAAAAAAAAAAAAAAAAAAAAAAAAAAAAAAAAAAAAAAAAAAAAAAAAAAAAAAAAAAAAAAAAAAAAAAAAAAAAAAAAAAAAAAAAAAAAAAAAAAAAAAAAAAAAAAAAAAAAAAAAAAAAAAAAAAAAAAAAAAAAAAAAAAAAAAAAAAAAAAAAAAAAAAAAAAAAAAAAAAAAAAAAAAAAAAAAAAAAAAAAAAAAAAAAAAAAAAAAAAAAAAAAAAAAAAAAAAAAAAAAAAAAAAAAAAAAAAAAAAAAAAAAAAAAAAAAAAAAAAAAAAAAAAAAAAAAAAAAAAAAAAAAAAAAAAAAAAAAAAAAAAAAAAAAAAAAAAAAAAAAAAAAAAAAAAAAAAAAAAAAAAAAAAAAAAeLYHhwQAAAAAgv6/doQVAAAAAAAAAAAAAAAAAAAAAAAAAAAAAAAAAAAAAAAAAAAAAAAAAAAAAAAAAAAAAAAAAAAAAAAAAAAAAAAAAAAAAAAAAAAAAAAAAAAAAAAAAAAAAAAAAAAAAAAAAAAAAAAAAAAAAAAAAAAAAAAAAAAAAAAAAAAAAAAAAAAAAAAAAAAAAAAAAAAAAAAAAAAAAAAAAAAAAAAAAAAAAAAAAAAAAAAAAAAAAAAAAAAAAAAAAAAAAAAAAAAAAAAAAAAAAAAAAAAAAAAAAAAAAAAAAAAAAAAAAAAAAAAAAAAAAAAAAAAAAAAAAAAAAAAAAAAAAAAAAAAAAAAAAAAAAAAAAAAAAAAAAAAAAAAAAGAJqa+RRiDve90AAAAASUVORK5CYII=;" vertex="1" parent="1">
                    <mxGeometry x="-470" y="750.6199999999999" width="230" height="129.38" as="geometry"/>
                </mxCell>
                <mxCell id="_fm6HAd3_Kjj56SGNAd9-42" value="" style="endArrow=open;endFill=1;endSize=12;html=1;strokeWidth=5;" edge="1" parent="1">
                    <mxGeometry width="160" relative="1" as="geometry">
                        <mxPoint x="-220" y="783" as="sourcePoint"/>
                        <mxPoint x="10" y="783" as="targetPoint"/>
                    </mxGeometry>
                </mxCell>
                <mxCell id="_fm6HAd3_Kjj56SGNAd9-43" value="" style="endArrow=open;endFill=1;endSize=12;html=1;strokeWidth=5;" edge="1" parent="1">
                    <mxGeometry width="160" relative="1" as="geometry">
                        <mxPoint x="10" y="828.18" as="sourcePoint"/>
                        <mxPoint x="-220" y="828.18" as="targetPoint"/>
                    </mxGeometry>
                </mxCell>
            </root>
        </mxGraphModel>
    </diagram>
</mxfile>